G04 Layer: TopLayer*
G04 EasyEDA v6.5.15, 2023-01-26 07:11:18*
G04 bc408e8c05344163a153380a18e2a67f,cd9332c1ef044f0797b2d1e08cb7fb93,10*
G04 Gerber Generator version 0.2*
G04 Scale: 100 percent, Rotated: No, Reflected: No *
G04 Dimensions in millimeters *
G04 leading zeros omitted , absolute positions ,4 integer and 5 decimal *
%FSLAX45Y45*%
%MOMM*%

%AMMACRO1*21,1,$1,$2,0,0,$3*%
%ADD10C,0.2540*%
%ADD11C,0.7620*%
%ADD12R,1.3000X1.3000*%
%ADD13MACRO1,1.377X1.1325X0.0000*%
%ADD14R,1.3770X1.1325*%
%ADD15R,0.9000X0.8000*%
%ADD16R,0.8000X0.9000*%
%ADD17R,1.0000X0.8000*%
%ADD18MACRO1,1.377X1.1325X90.0000*%
%ADD19O,2.1999956000000003X0.6999986*%
%ADD20R,1.7000X1.5748*%
%ADD21C,1.7000*%
%ADD22C,1.5748*%
%ADD23R,1.5748X1.5748*%
%ADD24C,2.8001*%
%ADD25MACRO1,2.8001X2.8001X15.0005*%
%ADD26C,0.6110*%
%ADD27C,0.0184*%

%LPD*%
G36*
X150368Y-4457192D02*
G01*
X146456Y-4456430D01*
X143205Y-4454194D01*
X140970Y-4450943D01*
X140208Y-4447032D01*
X140208Y-163068D01*
X140970Y-159156D01*
X143205Y-155905D01*
X146456Y-153670D01*
X150368Y-152908D01*
X3659632Y-152908D01*
X3663543Y-153670D01*
X3666794Y-155905D01*
X3669029Y-159156D01*
X3669792Y-163068D01*
X3669792Y-3271723D01*
X3669334Y-3274771D01*
X3668014Y-3277514D01*
X3665880Y-3279749D01*
X2165502Y-4455007D01*
X2162556Y-4456633D01*
X2159254Y-4457192D01*
G37*

%LPC*%
G36*
X2169769Y-284480D02*
G01*
X2231796Y-284480D01*
X2231796Y-252018D01*
X2231085Y-245719D01*
X2229205Y-240233D01*
X2226106Y-235356D01*
X2221992Y-231241D01*
X2217115Y-228193D01*
X2211628Y-226263D01*
X2205329Y-225552D01*
X2169769Y-225552D01*
G37*
G36*
X302818Y-4333748D02*
G01*
X459181Y-4333748D01*
X465480Y-4333036D01*
X470966Y-4331106D01*
X475843Y-4328058D01*
X479958Y-4323943D01*
X483006Y-4319066D01*
X484936Y-4313580D01*
X485648Y-4307281D01*
X485648Y-4150918D01*
X484936Y-4144619D01*
X483666Y-4141012D01*
X483108Y-4137660D01*
X483108Y-3748328D01*
X483870Y-3744468D01*
X486105Y-3741165D01*
X489356Y-3738930D01*
X493268Y-3738168D01*
X497179Y-3738930D01*
X500430Y-3741165D01*
X541578Y-3782263D01*
X547776Y-3787394D01*
X554482Y-3790950D01*
X561695Y-3793134D01*
X569722Y-3793947D01*
X678535Y-3793947D01*
X682447Y-3794709D01*
X685749Y-3796893D01*
X687324Y-3798468D01*
X695350Y-3804107D01*
X704291Y-3808272D01*
X713740Y-3810812D01*
X723544Y-3811676D01*
X733348Y-3810812D01*
X742797Y-3808272D01*
X751738Y-3804107D01*
X759764Y-3798468D01*
X766724Y-3791559D01*
X772363Y-3783482D01*
X776478Y-3774592D01*
X779018Y-3765092D01*
X779881Y-3755339D01*
X779018Y-3745534D01*
X776478Y-3736035D01*
X772363Y-3727145D01*
X766724Y-3719118D01*
X759764Y-3712159D01*
X751738Y-3706520D01*
X742797Y-3702354D01*
X733348Y-3699814D01*
X723544Y-3698951D01*
X713740Y-3699814D01*
X704291Y-3702354D01*
X695350Y-3706520D01*
X687324Y-3712159D01*
X685749Y-3713734D01*
X682447Y-3715918D01*
X678535Y-3716731D01*
X589432Y-3716731D01*
X585520Y-3715918D01*
X582218Y-3713734D01*
X542239Y-3673754D01*
X540054Y-3670452D01*
X539242Y-3666540D01*
X539242Y-3574542D01*
X538530Y-3568242D01*
X536651Y-3562756D01*
X533552Y-3557879D01*
X529488Y-3553764D01*
X524560Y-3550716D01*
X519125Y-3548786D01*
X512775Y-3548075D01*
X376224Y-3548075D01*
X369874Y-3548786D01*
X364439Y-3550716D01*
X359511Y-3553764D01*
X355447Y-3557879D01*
X352348Y-3562756D01*
X350469Y-3568242D01*
X349758Y-3574542D01*
X349758Y-3686657D01*
X350469Y-3693007D01*
X352348Y-3698443D01*
X355447Y-3703320D01*
X359511Y-3707434D01*
X364439Y-3710533D01*
X369874Y-3712413D01*
X376224Y-3713124D01*
X395732Y-3713124D01*
X399643Y-3713937D01*
X402894Y-3716121D01*
X405130Y-3719423D01*
X405892Y-3723284D01*
X405892Y-4114292D01*
X405130Y-4118203D01*
X402894Y-4121454D01*
X399643Y-4123690D01*
X395732Y-4124451D01*
X302818Y-4124451D01*
X296519Y-4125163D01*
X291033Y-4127093D01*
X286156Y-4130141D01*
X282041Y-4134256D01*
X278993Y-4139133D01*
X277063Y-4144619D01*
X276352Y-4150918D01*
X276352Y-4307281D01*
X277063Y-4313580D01*
X278993Y-4319066D01*
X282041Y-4323943D01*
X286156Y-4328058D01*
X291033Y-4331106D01*
X296519Y-4333036D01*
G37*
G36*
X889000Y-4333748D02*
G01*
X902665Y-4332833D01*
X916076Y-4330141D01*
X929030Y-4325772D01*
X941324Y-4319727D01*
X952703Y-4312107D01*
X962964Y-4303064D01*
X972007Y-4292803D01*
X979627Y-4281424D01*
X985672Y-4269130D01*
X990041Y-4256176D01*
X992733Y-4242765D01*
X993648Y-4229100D01*
X992733Y-4215434D01*
X990041Y-4202023D01*
X985672Y-4189069D01*
X982878Y-4183430D01*
X982014Y-4180789D01*
X981913Y-4177944D01*
X982268Y-4173931D01*
X982268Y-3517950D01*
X983183Y-3513734D01*
X985774Y-3510279D01*
X989584Y-3508197D01*
X999286Y-3505301D01*
X1015593Y-3498545D01*
X1031036Y-3490061D01*
X1045565Y-3479952D01*
X1058875Y-3468370D01*
X1070914Y-3455466D01*
X1081532Y-3441344D01*
X1090574Y-3426155D01*
X1097940Y-3410102D01*
X1103122Y-3394557D01*
X1105255Y-3390950D01*
X1108659Y-3388512D01*
X1112774Y-3387648D01*
X2033524Y-3387648D01*
X2037384Y-3388410D01*
X2040686Y-3390595D01*
X2313228Y-3663137D01*
X2315565Y-3666744D01*
X2316175Y-3670960D01*
X2315057Y-3675075D01*
X2309266Y-3686098D01*
X2302764Y-3702507D01*
X2298039Y-3719525D01*
X2295144Y-3736949D01*
X2294128Y-3754577D01*
X2294991Y-3772204D01*
X2297734Y-3789679D01*
X2302306Y-3806698D01*
X2308656Y-3823208D01*
X2316734Y-3838905D01*
X2326436Y-3853637D01*
X2337612Y-3867302D01*
X2350211Y-3879697D01*
X2364079Y-3890670D01*
X2378964Y-3900068D01*
X2394813Y-3907891D01*
X2411425Y-3913936D01*
X2428544Y-3918204D01*
X2446070Y-3920642D01*
X2463698Y-3921150D01*
X2481326Y-3919829D01*
X2498699Y-3916629D01*
X2515616Y-3911650D01*
X2531922Y-3904843D01*
X2547366Y-3896360D01*
X2561894Y-3886250D01*
X2575204Y-3874668D01*
X2587244Y-3861765D01*
X2597861Y-3847642D01*
X2606903Y-3832453D01*
X2614269Y-3816400D01*
X2619857Y-3799687D01*
X2623667Y-3782415D01*
X2625648Y-3764889D01*
X2625699Y-3747211D01*
X2623921Y-3729634D01*
X2620264Y-3712362D01*
X2614777Y-3695598D01*
X2607564Y-3679494D01*
X2598674Y-3664204D01*
X2588209Y-3649979D01*
X2576271Y-3636975D01*
X2563063Y-3625291D01*
X2548636Y-3615080D01*
X2533243Y-3606444D01*
X2516987Y-3599484D01*
X2500122Y-3594354D01*
X2482748Y-3591001D01*
X2465171Y-3589477D01*
X2447493Y-3589883D01*
X2430018Y-3592169D01*
X2412847Y-3596284D01*
X2396185Y-3602177D01*
X2379319Y-3610356D01*
X2375306Y-3611372D01*
X2371191Y-3610660D01*
X2367686Y-3608425D01*
X2081377Y-3322065D01*
X2075129Y-3316935D01*
X2068474Y-3313379D01*
X2061260Y-3311194D01*
X2053234Y-3310432D01*
X1112723Y-3310432D01*
X1108608Y-3309518D01*
X1105154Y-3307029D01*
X1103071Y-3303422D01*
X1098448Y-3289300D01*
X1091234Y-3273196D01*
X1082344Y-3257905D01*
X1071880Y-3243681D01*
X1059942Y-3230676D01*
X1046683Y-3218992D01*
X1032306Y-3208782D01*
X1016914Y-3200146D01*
X1000658Y-3193186D01*
X983792Y-3188055D01*
X966419Y-3184702D01*
X948842Y-3183178D01*
X931164Y-3183585D01*
X913688Y-3185871D01*
X896518Y-3189986D01*
X879856Y-3195878D01*
X863955Y-3203549D01*
X848918Y-3212846D01*
X834999Y-3223666D01*
X822299Y-3235960D01*
X810971Y-3249472D01*
X801116Y-3264153D01*
X792937Y-3279800D01*
X786434Y-3296208D01*
X784555Y-3302965D01*
X782472Y-3306826D01*
X779018Y-3309467D01*
X774750Y-3310432D01*
X754634Y-3310432D01*
X750722Y-3309620D01*
X747420Y-3307435D01*
X516839Y-3076854D01*
X514654Y-3073552D01*
X513842Y-3069640D01*
X513842Y-2977642D01*
X513130Y-2971342D01*
X511251Y-2965856D01*
X508152Y-2960979D01*
X504088Y-2956864D01*
X499160Y-2953816D01*
X493725Y-2951886D01*
X487375Y-2951175D01*
X350824Y-2951175D01*
X344474Y-2951886D01*
X339039Y-2953816D01*
X334111Y-2956864D01*
X330047Y-2960979D01*
X326948Y-2965856D01*
X325069Y-2971292D01*
X322986Y-2974797D01*
X319735Y-2977184D01*
X315772Y-2978099D01*
X311810Y-2977438D01*
X308406Y-2975254D01*
X306120Y-2971901D01*
X305308Y-2967939D01*
X305308Y-2903118D01*
X306070Y-2899206D01*
X309219Y-2894990D01*
X312623Y-2892704D01*
X316636Y-2891993D01*
X320598Y-2892907D01*
X323900Y-2895295D01*
X325983Y-2898800D01*
X326948Y-2901543D01*
X330047Y-2906420D01*
X334111Y-2910535D01*
X339039Y-2913583D01*
X344474Y-2915513D01*
X350824Y-2916224D01*
X487375Y-2916224D01*
X493725Y-2915513D01*
X499160Y-2913583D01*
X504088Y-2910535D01*
X508152Y-2906420D01*
X511251Y-2901543D01*
X513130Y-2896057D01*
X513842Y-2889758D01*
X513842Y-2777642D01*
X513130Y-2771292D01*
X511251Y-2765856D01*
X508152Y-2760980D01*
X504088Y-2756865D01*
X499160Y-2753766D01*
X493725Y-2751886D01*
X487375Y-2751175D01*
X467868Y-2751175D01*
X463956Y-2750362D01*
X460705Y-2748178D01*
X458470Y-2744876D01*
X457708Y-2741015D01*
X457708Y-2554833D01*
X458419Y-2551125D01*
X460400Y-2547975D01*
X463397Y-2545689D01*
X476453Y-2542133D01*
X485393Y-2538018D01*
X493420Y-2532380D01*
X500380Y-2525420D01*
X506018Y-2517394D01*
X510133Y-2508453D01*
X512673Y-2499004D01*
X513537Y-2489200D01*
X512673Y-2479395D01*
X510133Y-2469946D01*
X506018Y-2461006D01*
X500380Y-2452979D01*
X493420Y-2446020D01*
X485393Y-2440381D01*
X476453Y-2436266D01*
X467004Y-2433726D01*
X457200Y-2432862D01*
X447395Y-2433726D01*
X437946Y-2436266D01*
X429006Y-2440381D01*
X420979Y-2446020D01*
X414020Y-2452979D01*
X408381Y-2461006D01*
X404266Y-2469946D01*
X401726Y-2479395D01*
X401015Y-2487422D01*
X400100Y-2490825D01*
X398068Y-2493721D01*
X392176Y-2499664D01*
X387045Y-2505862D01*
X383489Y-2512568D01*
X381304Y-2519781D01*
X380492Y-2527808D01*
X380492Y-2741015D01*
X379730Y-2744876D01*
X377494Y-2748178D01*
X374243Y-2750362D01*
X370332Y-2751175D01*
X350824Y-2751175D01*
X344474Y-2751886D01*
X339039Y-2753766D01*
X334111Y-2756865D01*
X330047Y-2760980D01*
X326948Y-2765856D01*
X325069Y-2771292D01*
X324358Y-2777642D01*
X324358Y-2783636D01*
X323646Y-2787345D01*
X321665Y-2790545D01*
X318668Y-2792780D01*
X315061Y-2793796D01*
X310540Y-2794152D01*
X303276Y-2796235D01*
X296570Y-2799689D01*
X289814Y-2805176D01*
X239775Y-2855264D01*
X234645Y-2861462D01*
X231089Y-2868168D01*
X228904Y-2875381D01*
X228092Y-2883408D01*
X228092Y-3314192D01*
X228904Y-3322218D01*
X231089Y-3329432D01*
X234645Y-3336137D01*
X239775Y-3342335D01*
X346760Y-3449370D01*
X348945Y-3452672D01*
X349758Y-3456533D01*
X349758Y-3486658D01*
X350469Y-3492957D01*
X352348Y-3498443D01*
X355447Y-3503320D01*
X359511Y-3507435D01*
X364439Y-3510483D01*
X369874Y-3512413D01*
X376224Y-3513124D01*
X512775Y-3513124D01*
X519125Y-3512413D01*
X524560Y-3510483D01*
X529488Y-3507435D01*
X533552Y-3503320D01*
X536651Y-3498443D01*
X538530Y-3492957D01*
X539242Y-3486658D01*
X539242Y-3374542D01*
X538530Y-3368192D01*
X536651Y-3362756D01*
X533552Y-3357879D01*
X529488Y-3353765D01*
X524560Y-3350666D01*
X519125Y-3348786D01*
X512775Y-3348075D01*
X376224Y-3348075D01*
X369874Y-3348786D01*
X365150Y-3350412D01*
X361442Y-3350971D01*
X357733Y-3350158D01*
X354634Y-3348024D01*
X308305Y-3301695D01*
X306070Y-3298393D01*
X305308Y-3294481D01*
X305308Y-3099460D01*
X306120Y-3095498D01*
X308406Y-3092145D01*
X311810Y-3089960D01*
X315772Y-3089300D01*
X319735Y-3090214D01*
X322986Y-3092602D01*
X325069Y-3096107D01*
X326948Y-3101543D01*
X330047Y-3106420D01*
X334111Y-3110534D01*
X339039Y-3113633D01*
X344474Y-3115513D01*
X350824Y-3116224D01*
X442823Y-3116224D01*
X446735Y-3117037D01*
X450037Y-3119221D01*
X706780Y-3375964D01*
X712978Y-3381095D01*
X719683Y-3384651D01*
X726897Y-3386836D01*
X734923Y-3387648D01*
X774750Y-3387648D01*
X779018Y-3388563D01*
X782523Y-3391255D01*
X784555Y-3395167D01*
X785926Y-3400399D01*
X792327Y-3416909D01*
X800404Y-3432606D01*
X810056Y-3447338D01*
X821283Y-3461004D01*
X833882Y-3473399D01*
X847750Y-3484372D01*
X862634Y-3493770D01*
X878484Y-3501593D01*
X895096Y-3507638D01*
X897382Y-3508197D01*
X901344Y-3510229D01*
X904087Y-3513734D01*
X905052Y-3518052D01*
X905052Y-4114698D01*
X904240Y-4118711D01*
X901852Y-4122115D01*
X898347Y-4124248D01*
X894232Y-4124807D01*
X889000Y-4124451D01*
X875334Y-4125366D01*
X861923Y-4128058D01*
X848969Y-4132427D01*
X836676Y-4138472D01*
X825296Y-4146092D01*
X815035Y-4155135D01*
X805992Y-4165396D01*
X798372Y-4176776D01*
X792327Y-4189069D01*
X787958Y-4202023D01*
X785266Y-4215434D01*
X784352Y-4229100D01*
X785266Y-4242765D01*
X787958Y-4256176D01*
X792327Y-4269130D01*
X798372Y-4281424D01*
X805992Y-4292803D01*
X815035Y-4303064D01*
X825296Y-4312107D01*
X836676Y-4319727D01*
X848969Y-4325772D01*
X861923Y-4330141D01*
X875334Y-4332833D01*
G37*
G36*
X2010003Y-284480D02*
G01*
X2072030Y-284480D01*
X2072030Y-225552D01*
X2036470Y-225552D01*
X2030171Y-226263D01*
X2024684Y-228193D01*
X2019807Y-231241D01*
X2015693Y-235356D01*
X2012594Y-240233D01*
X2010714Y-245719D01*
X2010003Y-252018D01*
G37*
G36*
X1908657Y-4069892D02*
G01*
X1926285Y-4068572D01*
X1943658Y-4065371D01*
X1960575Y-4060342D01*
X1976882Y-4053535D01*
X1992375Y-4045051D01*
X2006854Y-4034993D01*
X2020214Y-4023410D01*
X2032254Y-4010507D01*
X2042820Y-3996334D01*
X2051862Y-3981196D01*
X2059228Y-3965143D01*
X2064867Y-3948379D01*
X2068677Y-3931158D01*
X2070607Y-3913581D01*
X2070709Y-3895953D01*
X2068880Y-3878376D01*
X2065223Y-3861104D01*
X2059787Y-3844290D01*
X2052523Y-3828186D01*
X2043633Y-3812946D01*
X2033168Y-3798722D01*
X2021281Y-3785666D01*
X2008022Y-3773982D01*
X1993595Y-3763772D01*
X1978202Y-3755186D01*
X1961946Y-3748227D01*
X1945081Y-3743045D01*
X1927758Y-3739692D01*
X1910130Y-3738219D01*
X1892503Y-3738626D01*
X1874977Y-3740861D01*
X1857806Y-3744976D01*
X1841195Y-3750919D01*
X1825243Y-3758539D01*
X1810257Y-3767836D01*
X1796288Y-3778707D01*
X1783588Y-3790950D01*
X1772259Y-3804513D01*
X1762455Y-3819194D01*
X1754225Y-3834790D01*
X1747723Y-3851249D01*
X1742998Y-3868267D01*
X1740103Y-3885692D01*
X1739087Y-3903319D01*
X1739950Y-3920947D01*
X1742693Y-3938371D01*
X1747266Y-3955440D01*
X1753616Y-3971899D01*
X1761693Y-3987596D01*
X1771396Y-4002379D01*
X1782622Y-4016044D01*
X1795221Y-4028389D01*
X1809038Y-4039362D01*
X1823974Y-4048810D01*
X1839823Y-4056583D01*
X1856384Y-4062679D01*
X1873554Y-4066946D01*
X1891030Y-4069334D01*
G37*
G36*
X1353667Y-3921150D02*
G01*
X1371295Y-3919829D01*
X1388618Y-3916629D01*
X1405585Y-3911600D01*
X1421892Y-3904843D01*
X1437335Y-3896360D01*
X1451864Y-3886250D01*
X1465173Y-3874668D01*
X1477213Y-3861765D01*
X1487830Y-3847642D01*
X1496872Y-3832453D01*
X1504238Y-3816400D01*
X1509826Y-3799687D01*
X1513636Y-3782415D01*
X1515618Y-3764889D01*
X1515668Y-3747211D01*
X1513890Y-3729634D01*
X1510233Y-3712362D01*
X1504746Y-3695598D01*
X1497533Y-3679494D01*
X1488643Y-3664204D01*
X1478178Y-3649979D01*
X1466240Y-3636975D01*
X1453032Y-3625291D01*
X1438605Y-3615080D01*
X1423212Y-3606444D01*
X1406956Y-3599484D01*
X1390091Y-3594354D01*
X1372717Y-3591001D01*
X1355140Y-3589477D01*
X1337462Y-3589883D01*
X1319987Y-3592169D01*
X1302816Y-3596284D01*
X1286154Y-3602177D01*
X1270254Y-3609848D01*
X1255217Y-3619144D01*
X1241298Y-3629964D01*
X1228598Y-3642258D01*
X1217269Y-3655771D01*
X1207414Y-3670452D01*
X1199235Y-3686098D01*
X1192733Y-3702507D01*
X1188008Y-3719525D01*
X1185113Y-3736949D01*
X1184097Y-3754577D01*
X1184960Y-3772204D01*
X1187704Y-3789679D01*
X1192276Y-3806698D01*
X1198626Y-3823208D01*
X1206703Y-3838905D01*
X1216355Y-3853637D01*
X1227582Y-3867302D01*
X1240180Y-3879697D01*
X1254048Y-3890670D01*
X1268933Y-3900068D01*
X1284782Y-3907891D01*
X1301394Y-3913936D01*
X1318514Y-3918204D01*
X1336040Y-3920642D01*
G37*
G36*
X785469Y-284480D02*
G01*
X847496Y-284480D01*
X847496Y-252018D01*
X846785Y-245719D01*
X844905Y-240233D01*
X841806Y-235356D01*
X837692Y-231241D01*
X832815Y-228193D01*
X827328Y-226263D01*
X821029Y-225552D01*
X785469Y-225552D01*
G37*
G36*
X625703Y-284480D02*
G01*
X687730Y-284480D01*
X687730Y-225552D01*
X652170Y-225552D01*
X645871Y-226263D01*
X640384Y-228193D01*
X635508Y-231241D01*
X631393Y-235356D01*
X628294Y-240233D01*
X626414Y-245719D01*
X625703Y-252018D01*
G37*
G36*
X3258820Y-284480D02*
G01*
X3317748Y-284480D01*
X3317748Y-252018D01*
X3317036Y-245719D01*
X3315106Y-240233D01*
X3312058Y-235356D01*
X3307943Y-231241D01*
X3303066Y-228193D01*
X3297580Y-226263D01*
X3291281Y-225552D01*
X3258820Y-225552D01*
G37*
G36*
X3108452Y-284480D02*
G01*
X3167380Y-284480D01*
X3167380Y-225552D01*
X3134918Y-225552D01*
X3128619Y-226263D01*
X3123133Y-228193D01*
X3118256Y-231241D01*
X3114141Y-235356D01*
X3111093Y-240233D01*
X3109163Y-245719D01*
X3108452Y-252018D01*
G37*
G36*
X2869996Y-3514851D02*
G01*
X2887624Y-3513531D01*
X2904947Y-3510330D01*
X2921914Y-3505301D01*
X2938221Y-3498545D01*
X2953664Y-3490061D01*
X2968193Y-3479952D01*
X2981502Y-3468370D01*
X2993542Y-3455466D01*
X3004159Y-3441344D01*
X3013202Y-3426155D01*
X3020568Y-3410102D01*
X3026156Y-3393389D01*
X3029966Y-3376117D01*
X3031947Y-3358591D01*
X3031998Y-3340912D01*
X3030220Y-3323336D01*
X3026562Y-3306064D01*
X3021076Y-3289300D01*
X3013862Y-3273196D01*
X3004972Y-3257905D01*
X2994507Y-3243681D01*
X2982569Y-3230676D01*
X2969361Y-3218992D01*
X2954934Y-3208782D01*
X2939542Y-3200146D01*
X2923286Y-3193186D01*
X2906420Y-3188055D01*
X2889046Y-3184702D01*
X2871470Y-3183178D01*
X2853791Y-3183585D01*
X2836316Y-3185871D01*
X2819146Y-3189986D01*
X2802483Y-3195878D01*
X2786583Y-3203549D01*
X2771546Y-3212846D01*
X2757627Y-3223666D01*
X2744927Y-3235960D01*
X2733598Y-3249472D01*
X2723743Y-3264153D01*
X2715564Y-3279800D01*
X2709062Y-3296208D01*
X2704338Y-3313226D01*
X2701442Y-3330651D01*
X2700426Y-3348278D01*
X2701290Y-3365906D01*
X2704033Y-3383381D01*
X2708605Y-3400399D01*
X2714955Y-3416909D01*
X2723032Y-3432606D01*
X2732684Y-3447338D01*
X2743911Y-3461004D01*
X2756509Y-3473399D01*
X2770378Y-3484321D01*
X2785262Y-3493770D01*
X2801112Y-3501593D01*
X2817723Y-3507638D01*
X2834843Y-3511905D01*
X2852369Y-3514344D01*
G37*
G36*
X2036470Y-434848D02*
G01*
X2072030Y-434848D01*
X2072030Y-375920D01*
X2010003Y-375920D01*
X2010003Y-408381D01*
X2010714Y-414680D01*
X2012594Y-420166D01*
X2015693Y-425043D01*
X2019807Y-429158D01*
X2024684Y-432206D01*
X2030171Y-434136D01*
G37*
G36*
X2169769Y-434848D02*
G01*
X2205329Y-434848D01*
X2211628Y-434136D01*
X2217115Y-432206D01*
X2221992Y-429158D01*
X2226106Y-425043D01*
X2229205Y-420166D01*
X2231085Y-414680D01*
X2231796Y-408381D01*
X2231796Y-375920D01*
X2169769Y-375920D01*
G37*
G36*
X785469Y-434848D02*
G01*
X821029Y-434848D01*
X827328Y-434136D01*
X832815Y-432206D01*
X837692Y-429158D01*
X841806Y-425043D01*
X844905Y-420166D01*
X846785Y-414680D01*
X847496Y-408381D01*
X847496Y-375920D01*
X785469Y-375920D01*
G37*
G36*
X2242058Y-3152343D02*
G01*
X2259685Y-3151022D01*
X2277059Y-3147822D01*
X2293975Y-3142792D01*
X2310282Y-3135985D01*
X2325776Y-3127502D01*
X2340254Y-3117443D01*
X2353614Y-3105861D01*
X2365654Y-3092907D01*
X2376220Y-3078784D01*
X2385263Y-3063646D01*
X2392629Y-3047593D01*
X2398268Y-3030829D01*
X2402078Y-3013608D01*
X2404008Y-2996031D01*
X2404110Y-2978404D01*
X2402281Y-2960827D01*
X2398623Y-2943555D01*
X2393188Y-2926740D01*
X2385923Y-2910636D01*
X2377033Y-2895396D01*
X2366568Y-2881172D01*
X2354630Y-2868117D01*
X2341422Y-2856433D01*
X2326995Y-2846222D01*
X2311603Y-2837586D01*
X2295347Y-2830677D01*
X2278481Y-2825496D01*
X2261158Y-2822143D01*
X2243531Y-2820670D01*
X2225903Y-2821076D01*
X2208377Y-2823311D01*
X2191207Y-2827426D01*
X2174544Y-2833370D01*
X2158644Y-2840990D01*
X2143658Y-2850286D01*
X2129688Y-2861157D01*
X2116988Y-2873400D01*
X2105660Y-2886964D01*
X2095855Y-2901645D01*
X2087625Y-2917240D01*
X2081123Y-2933700D01*
X2076399Y-2950718D01*
X2073503Y-2968091D01*
X2072487Y-2985770D01*
X2073351Y-3003397D01*
X2076094Y-3020822D01*
X2080666Y-3037890D01*
X2087016Y-3054350D01*
X2095093Y-3070047D01*
X2104796Y-3084830D01*
X2115972Y-3098495D01*
X2128570Y-3110839D01*
X2142439Y-3121812D01*
X2157374Y-3131261D01*
X2173224Y-3139033D01*
X2189784Y-3145078D01*
X2206904Y-3149346D01*
X2224430Y-3151784D01*
G37*
G36*
X696925Y-2991307D02*
G01*
X703224Y-2990342D01*
X972566Y-2918155D01*
X978509Y-2915869D01*
X983284Y-2912567D01*
X987247Y-2908350D01*
X990142Y-2903321D01*
X991819Y-2897784D01*
X992276Y-2892044D01*
X991311Y-2885744D01*
X919124Y-2616352D01*
X916838Y-2610459D01*
X913536Y-2605684D01*
X909319Y-2601722D01*
X904290Y-2598826D01*
X898753Y-2597150D01*
X893013Y-2596692D01*
X886714Y-2597658D01*
X617321Y-2669844D01*
X611428Y-2672130D01*
X606653Y-2675432D01*
X602691Y-2679649D01*
X599795Y-2684678D01*
X598119Y-2690215D01*
X597662Y-2695956D01*
X598627Y-2702255D01*
X670814Y-2971647D01*
X673100Y-2977540D01*
X676402Y-2982315D01*
X680618Y-2986278D01*
X685647Y-2989173D01*
X691184Y-2990850D01*
G37*
G36*
X652170Y-434848D02*
G01*
X687730Y-434848D01*
X687730Y-375920D01*
X625703Y-375920D01*
X625703Y-408381D01*
X626414Y-414680D01*
X628294Y-420166D01*
X631393Y-425043D01*
X635508Y-429158D01*
X640384Y-432206D01*
X645871Y-434136D01*
G37*
G36*
X3018688Y-2959862D02*
G01*
X3036316Y-2958541D01*
X3053689Y-2955340D01*
X3070606Y-2950311D01*
X3086912Y-2943504D01*
X3102406Y-2935020D01*
X3116884Y-2924962D01*
X3130245Y-2913380D01*
X3142284Y-2900426D01*
X3152851Y-2886303D01*
X3161893Y-2871165D01*
X3169259Y-2855112D01*
X3174898Y-2838348D01*
X3178708Y-2821127D01*
X3180638Y-2803550D01*
X3180740Y-2785922D01*
X3178911Y-2768346D01*
X3175254Y-2751074D01*
X3169818Y-2734259D01*
X3162604Y-2718155D01*
X3153664Y-2702915D01*
X3143199Y-2688691D01*
X3131312Y-2675636D01*
X3118053Y-2663952D01*
X3103676Y-2653741D01*
X3088233Y-2645105D01*
X3072028Y-2638196D01*
X3055112Y-2633014D01*
X3037789Y-2629662D01*
X3020161Y-2628188D01*
X3002534Y-2628595D01*
X2985008Y-2630830D01*
X2967837Y-2634945D01*
X2951226Y-2640888D01*
X2935274Y-2648508D01*
X2920288Y-2657805D01*
X2906318Y-2668676D01*
X2893618Y-2680919D01*
X2882290Y-2694482D01*
X2872486Y-2709164D01*
X2864256Y-2724759D01*
X2857754Y-2741218D01*
X2853029Y-2758236D01*
X2850134Y-2775610D01*
X2849118Y-2793288D01*
X2849981Y-2810916D01*
X2852724Y-2828340D01*
X2857296Y-2845409D01*
X2863646Y-2861868D01*
X2871724Y-2877566D01*
X2881426Y-2892348D01*
X2892653Y-2906014D01*
X2905252Y-2918358D01*
X2919069Y-2929331D01*
X2934004Y-2938780D01*
X2949854Y-2946552D01*
X2966415Y-2952597D01*
X2983585Y-2956864D01*
X3001060Y-2959303D01*
G37*
G36*
X1372108Y-2934208D02*
G01*
X1764792Y-2934208D01*
X1772818Y-2933395D01*
X1780032Y-2931210D01*
X1786737Y-2927654D01*
X1792935Y-2922524D01*
X2260904Y-2454605D01*
X2264206Y-2452370D01*
X2268118Y-2451608D01*
X2691892Y-2451608D01*
X2699918Y-2450795D01*
X2707132Y-2448610D01*
X2713837Y-2445054D01*
X2720035Y-2439924D01*
X2774086Y-2385923D01*
X2777591Y-2383637D01*
X2781706Y-2382926D01*
X2785770Y-2383993D01*
X2801112Y-2391562D01*
X2817723Y-2397607D01*
X2834843Y-2401874D01*
X2852369Y-2404313D01*
X2869996Y-2404821D01*
X2887624Y-2403500D01*
X2904998Y-2400300D01*
X2921914Y-2395270D01*
X2938221Y-2388514D01*
X2953664Y-2380030D01*
X2968193Y-2369921D01*
X2981502Y-2358339D01*
X2993542Y-2345436D01*
X3004159Y-2331313D01*
X3013202Y-2316124D01*
X3020568Y-2300071D01*
X3025800Y-2284526D01*
X3027883Y-2280920D01*
X3031286Y-2278430D01*
X3035401Y-2277567D01*
X3099409Y-2277567D01*
X3107436Y-2276805D01*
X3114700Y-2274620D01*
X3121355Y-2271064D01*
X3127552Y-2265934D01*
X3402431Y-1991106D01*
X3405733Y-1988870D01*
X3409594Y-1988108D01*
X3506114Y-1988108D01*
X3512464Y-1987397D01*
X3517900Y-1985467D01*
X3522827Y-1982419D01*
X3526891Y-1978304D01*
X3529990Y-1973427D01*
X3531920Y-1967941D01*
X3532632Y-1961642D01*
X3532632Y-1832762D01*
X3531920Y-1826463D01*
X3529990Y-1820976D01*
X3526891Y-1816100D01*
X3522827Y-1811985D01*
X3517900Y-1808937D01*
X3512464Y-1807006D01*
X3506114Y-1806295D01*
X3377285Y-1806295D01*
X3370935Y-1807006D01*
X3365500Y-1808937D01*
X3360572Y-1811985D01*
X3356508Y-1816100D01*
X3353409Y-1820976D01*
X3351479Y-1826463D01*
X3350768Y-1832762D01*
X3350768Y-1929282D01*
X3350006Y-1933193D01*
X3347821Y-1936496D01*
X3086912Y-2197404D01*
X3083610Y-2199589D01*
X3079699Y-2200351D01*
X3035350Y-2200351D01*
X3031236Y-2199487D01*
X3027781Y-2196998D01*
X3025698Y-2193340D01*
X3021076Y-2179269D01*
X3013862Y-2163165D01*
X3004972Y-2147874D01*
X2994507Y-2133650D01*
X2982569Y-2120646D01*
X2969361Y-2108962D01*
X2954934Y-2098751D01*
X2939542Y-2090115D01*
X2923286Y-2083155D01*
X2906420Y-2078024D01*
X2889046Y-2074672D01*
X2871470Y-2073148D01*
X2853791Y-2073554D01*
X2836316Y-2075840D01*
X2819146Y-2079955D01*
X2802483Y-2085848D01*
X2786583Y-2093518D01*
X2771546Y-2102815D01*
X2757627Y-2113635D01*
X2744927Y-2125929D01*
X2733598Y-2139442D01*
X2723743Y-2154123D01*
X2715564Y-2169769D01*
X2709062Y-2186178D01*
X2704338Y-2203196D01*
X2701442Y-2220620D01*
X2700426Y-2238248D01*
X2701290Y-2255875D01*
X2704033Y-2273350D01*
X2708605Y-2290368D01*
X2714955Y-2306878D01*
X2721406Y-2319426D01*
X2722524Y-2323490D01*
X2721864Y-2327706D01*
X2719527Y-2331262D01*
X2679395Y-2371394D01*
X2676093Y-2373630D01*
X2672181Y-2374392D01*
X2248408Y-2374392D01*
X2240381Y-2375204D01*
X2233168Y-2377389D01*
X2226462Y-2380945D01*
X2220264Y-2386076D01*
X1884730Y-2721559D01*
X1881479Y-2723743D01*
X1877568Y-2724505D01*
X1873656Y-2723743D01*
X1870405Y-2721559D01*
X1868170Y-2718257D01*
X1867407Y-2714345D01*
X1867407Y-2484120D01*
X1868170Y-2480208D01*
X1870405Y-2476906D01*
X2367737Y-1979574D01*
X2371242Y-1977288D01*
X2375357Y-1976628D01*
X2379370Y-1977643D01*
X2394813Y-1985264D01*
X2411425Y-1991309D01*
X2428544Y-1995576D01*
X2446070Y-1998014D01*
X2463698Y-1998522D01*
X2481326Y-1997202D01*
X2498648Y-1994001D01*
X2515616Y-1988972D01*
X2531922Y-1982216D01*
X2547366Y-1973732D01*
X2561894Y-1963623D01*
X2575204Y-1952040D01*
X2587345Y-1939036D01*
X2590698Y-1936648D01*
X2594762Y-1935835D01*
X3061208Y-1935835D01*
X3065119Y-1936597D01*
X3068421Y-1938782D01*
X3070606Y-1942084D01*
X3071368Y-1945995D01*
X3071368Y-1961642D01*
X3072079Y-1967941D01*
X3074009Y-1973427D01*
X3077108Y-1978304D01*
X3081172Y-1982419D01*
X3086100Y-1985467D01*
X3091535Y-1987397D01*
X3097885Y-1988108D01*
X3226714Y-1988108D01*
X3233064Y-1987397D01*
X3238500Y-1985467D01*
X3243427Y-1982419D01*
X3247491Y-1978304D01*
X3250590Y-1973427D01*
X3252520Y-1967941D01*
X3253232Y-1961642D01*
X3253232Y-1832762D01*
X3252520Y-1826463D01*
X3250590Y-1820976D01*
X3247491Y-1816100D01*
X3243427Y-1811985D01*
X3238500Y-1808937D01*
X3233064Y-1807006D01*
X3226714Y-1806295D01*
X3097885Y-1806295D01*
X3091535Y-1807006D01*
X3086100Y-1808937D01*
X3081172Y-1811985D01*
X3077108Y-1816100D01*
X3074009Y-1820976D01*
X3072079Y-1826463D01*
X3071368Y-1832762D01*
X3071368Y-1848459D01*
X3070606Y-1852320D01*
X3068421Y-1855622D01*
X3065119Y-1857806D01*
X3061208Y-1858619D01*
X2635148Y-1858619D01*
X2631033Y-1857705D01*
X2627579Y-1855216D01*
X2625496Y-1851507D01*
X2625090Y-1847291D01*
X2625648Y-1842262D01*
X2625699Y-1824583D01*
X2623921Y-1807006D01*
X2620264Y-1789734D01*
X2614777Y-1772970D01*
X2607564Y-1756867D01*
X2598674Y-1741576D01*
X2588209Y-1727352D01*
X2576271Y-1714347D01*
X2563063Y-1702663D01*
X2548636Y-1692452D01*
X2533243Y-1683816D01*
X2516987Y-1676857D01*
X2500122Y-1671726D01*
X2482748Y-1668373D01*
X2465171Y-1666849D01*
X2447493Y-1667256D01*
X2430018Y-1669542D01*
X2412847Y-1673656D01*
X2396185Y-1679549D01*
X2380284Y-1687220D01*
X2365248Y-1696516D01*
X2351328Y-1707337D01*
X2338628Y-1719630D01*
X2327300Y-1733143D01*
X2317445Y-1747824D01*
X2309266Y-1763471D01*
X2302764Y-1779879D01*
X2298039Y-1796897D01*
X2295144Y-1814322D01*
X2294128Y-1831949D01*
X2294991Y-1849577D01*
X2297734Y-1867052D01*
X2302306Y-1884070D01*
X2308656Y-1900580D01*
X2315057Y-1913077D01*
X2316175Y-1917141D01*
X2315514Y-1921357D01*
X2313228Y-1924913D01*
X1801875Y-2436266D01*
X1796745Y-2442464D01*
X1793189Y-2449118D01*
X1791004Y-2456383D01*
X1790192Y-2464409D01*
X1790192Y-2735681D01*
X1789430Y-2739593D01*
X1787194Y-2742895D01*
X1726895Y-2803194D01*
X1723593Y-2805430D01*
X1719681Y-2806192D01*
X1417218Y-2806192D01*
X1413306Y-2805430D01*
X1410004Y-2803194D01*
X1043635Y-2436876D01*
X1037437Y-2431745D01*
X1030732Y-2428189D01*
X1023518Y-2426004D01*
X1015492Y-2425192D01*
X820318Y-2425192D01*
X816406Y-2424430D01*
X813104Y-2422194D01*
X689305Y-2298395D01*
X687070Y-2295093D01*
X686308Y-2291181D01*
X686308Y-1998268D01*
X687070Y-1994357D01*
X689305Y-1991106D01*
X692556Y-1988870D01*
X696468Y-1988108D01*
X712114Y-1988108D01*
X718464Y-1987397D01*
X723900Y-1985467D01*
X728827Y-1982419D01*
X732891Y-1978304D01*
X735990Y-1973427D01*
X737920Y-1967941D01*
X738632Y-1961642D01*
X738632Y-1832762D01*
X737920Y-1826463D01*
X735990Y-1820976D01*
X732891Y-1816100D01*
X728827Y-1811985D01*
X723900Y-1808937D01*
X718464Y-1807006D01*
X712114Y-1806295D01*
X583285Y-1806295D01*
X576935Y-1807006D01*
X571500Y-1808937D01*
X566572Y-1811985D01*
X562508Y-1816100D01*
X559409Y-1820976D01*
X557479Y-1826463D01*
X556768Y-1832762D01*
X556768Y-1961642D01*
X557479Y-1967941D01*
X559409Y-1973427D01*
X562508Y-1978304D01*
X566572Y-1982419D01*
X571500Y-1985467D01*
X576935Y-1987397D01*
X583285Y-1988108D01*
X598932Y-1988108D01*
X602843Y-1988870D01*
X606094Y-1991106D01*
X608330Y-1994357D01*
X609092Y-1998268D01*
X609092Y-2257145D01*
X608330Y-2261057D01*
X606094Y-2264359D01*
X602843Y-2266543D01*
X598932Y-2267305D01*
X595020Y-2266543D01*
X591769Y-2264359D01*
X409905Y-2082495D01*
X407670Y-2079193D01*
X406908Y-2075281D01*
X406908Y-1998268D01*
X407670Y-1994357D01*
X409905Y-1991106D01*
X413156Y-1988870D01*
X417068Y-1988108D01*
X432714Y-1988108D01*
X439064Y-1987397D01*
X444500Y-1985467D01*
X449427Y-1982419D01*
X453491Y-1978304D01*
X456590Y-1973427D01*
X458520Y-1967941D01*
X459232Y-1961642D01*
X459232Y-1832762D01*
X458520Y-1826463D01*
X456590Y-1820976D01*
X453491Y-1816100D01*
X449427Y-1811985D01*
X444500Y-1808937D01*
X439064Y-1807006D01*
X432714Y-1806295D01*
X303885Y-1806295D01*
X297535Y-1807006D01*
X292100Y-1808937D01*
X287172Y-1811985D01*
X283108Y-1816100D01*
X280009Y-1820976D01*
X278079Y-1826463D01*
X277368Y-1832762D01*
X277368Y-1961642D01*
X278079Y-1967941D01*
X280009Y-1973427D01*
X283108Y-1978304D01*
X287172Y-1982419D01*
X292100Y-1985467D01*
X297535Y-1987397D01*
X303885Y-1988108D01*
X319532Y-1988108D01*
X323443Y-1988870D01*
X326694Y-1991106D01*
X328930Y-1994357D01*
X329692Y-1998268D01*
X329692Y-2094992D01*
X330504Y-2103018D01*
X332689Y-2110232D01*
X336245Y-2116937D01*
X341376Y-2123135D01*
X759764Y-2541524D01*
X765962Y-2546654D01*
X772668Y-2550210D01*
X779881Y-2552395D01*
X787908Y-2553208D01*
X970381Y-2553208D01*
X974293Y-2553970D01*
X977595Y-2556205D01*
X1343964Y-2922524D01*
X1350162Y-2927654D01*
X1356868Y-2931210D01*
X1364081Y-2933395D01*
G37*
G36*
X3258820Y-434848D02*
G01*
X3291281Y-434848D01*
X3297580Y-434136D01*
X3303066Y-432206D01*
X3307943Y-429158D01*
X3312058Y-425043D01*
X3315106Y-420166D01*
X3317036Y-414680D01*
X3317748Y-408381D01*
X3317748Y-375920D01*
X3258820Y-375920D01*
G37*
G36*
X696671Y-899007D02*
G01*
X744524Y-899007D01*
X744524Y-871524D01*
X743813Y-865174D01*
X741883Y-859739D01*
X738835Y-854811D01*
X734720Y-850747D01*
X729843Y-847648D01*
X724357Y-845769D01*
X718058Y-845058D01*
X696671Y-845058D01*
G37*
G36*
X1575308Y-2767380D02*
G01*
X1592884Y-2766060D01*
X1610258Y-2762859D01*
X1627174Y-2757830D01*
X1643481Y-2751023D01*
X1658975Y-2742539D01*
X1673453Y-2732481D01*
X1686814Y-2720898D01*
X1698853Y-2707944D01*
X1709470Y-2693822D01*
X1718462Y-2678684D01*
X1725828Y-2662631D01*
X1731467Y-2645867D01*
X1735277Y-2628646D01*
X1737207Y-2611069D01*
X1737309Y-2593441D01*
X1735531Y-2575864D01*
X1731873Y-2558592D01*
X1726387Y-2541778D01*
X1719173Y-2525674D01*
X1710283Y-2510434D01*
X1699768Y-2496210D01*
X1687880Y-2483154D01*
X1674622Y-2471470D01*
X1660245Y-2461260D01*
X1644802Y-2452624D01*
X1628597Y-2445715D01*
X1611680Y-2440533D01*
X1594358Y-2437180D01*
X1576781Y-2435707D01*
X1567840Y-2435910D01*
X1563827Y-2435148D01*
X1560423Y-2432913D01*
X1159205Y-2031695D01*
X1156970Y-2028393D01*
X1156208Y-2024481D01*
X1156208Y-1575308D01*
X1155395Y-1567281D01*
X1153210Y-1560068D01*
X1149654Y-1553362D01*
X1144524Y-1547164D01*
X992835Y-1395476D01*
X986637Y-1390345D01*
X979932Y-1386789D01*
X972718Y-1384604D01*
X964692Y-1383792D01*
X937768Y-1383792D01*
X933856Y-1383030D01*
X930605Y-1380794D01*
X928369Y-1377543D01*
X927608Y-1373632D01*
X927608Y-1188618D01*
X928369Y-1184706D01*
X930605Y-1181404D01*
X952804Y-1159205D01*
X956106Y-1156970D01*
X960018Y-1156208D01*
X1301851Y-1156208D01*
X1304290Y-1156512D01*
X1306576Y-1157376D01*
X1310436Y-1159408D01*
X1313383Y-1161745D01*
X1315262Y-1165047D01*
X1315821Y-1168755D01*
X1315008Y-1172464D01*
X1312875Y-1175562D01*
X1299870Y-1183843D01*
X1292453Y-1190650D01*
X1286256Y-1198626D01*
X1281480Y-1207465D01*
X1278229Y-1216964D01*
X1276553Y-1226870D01*
X1276553Y-1236929D01*
X1278229Y-1246835D01*
X1281480Y-1256334D01*
X1286256Y-1265174D01*
X1292453Y-1273149D01*
X1299870Y-1279956D01*
X1308252Y-1285443D01*
X1317498Y-1289456D01*
X1327200Y-1291945D01*
X1337665Y-1292809D01*
X1486814Y-1292809D01*
X1497279Y-1291945D01*
X1506982Y-1289456D01*
X1516227Y-1285443D01*
X1524609Y-1279956D01*
X1531975Y-1273200D01*
X1535125Y-1271219D01*
X1538833Y-1270508D01*
X1548892Y-1270508D01*
X1556918Y-1269695D01*
X1564132Y-1267510D01*
X1570837Y-1263954D01*
X1577035Y-1258824D01*
X1621078Y-1214831D01*
X1623974Y-1212799D01*
X1627378Y-1211884D01*
X1635404Y-1211173D01*
X1644853Y-1208633D01*
X1653793Y-1204518D01*
X1661820Y-1198880D01*
X1668780Y-1191920D01*
X1674418Y-1183894D01*
X1678533Y-1174953D01*
X1681073Y-1165504D01*
X1681937Y-1155700D01*
X1681073Y-1145895D01*
X1678533Y-1136446D01*
X1674418Y-1127506D01*
X1668780Y-1119479D01*
X1661820Y-1112520D01*
X1653793Y-1106881D01*
X1644853Y-1102766D01*
X1635404Y-1100226D01*
X1625600Y-1099362D01*
X1615795Y-1100226D01*
X1606346Y-1102766D01*
X1597406Y-1106881D01*
X1589379Y-1112520D01*
X1582420Y-1119479D01*
X1576781Y-1127506D01*
X1572666Y-1136446D01*
X1570126Y-1145895D01*
X1569415Y-1153922D01*
X1568500Y-1157325D01*
X1566468Y-1160221D01*
X1541018Y-1185672D01*
X1537817Y-1187856D01*
X1534007Y-1188669D01*
X1530248Y-1188008D01*
X1526946Y-1185976D01*
X1524609Y-1183843D01*
X1511503Y-1175461D01*
X1509369Y-1172210D01*
X1508607Y-1168400D01*
X1509369Y-1164590D01*
X1511503Y-1161338D01*
X1524609Y-1152956D01*
X1532026Y-1146149D01*
X1538224Y-1138174D01*
X1542999Y-1129334D01*
X1546250Y-1119835D01*
X1547926Y-1109929D01*
X1547926Y-1099870D01*
X1546250Y-1089964D01*
X1542999Y-1080465D01*
X1538224Y-1071626D01*
X1532026Y-1063650D01*
X1524609Y-1056843D01*
X1511503Y-1048461D01*
X1509369Y-1045210D01*
X1508607Y-1041400D01*
X1509369Y-1037590D01*
X1511503Y-1034338D01*
X1524609Y-1025956D01*
X1531975Y-1019200D01*
X1535125Y-1017219D01*
X1538833Y-1016508D01*
X1618081Y-1016508D01*
X1621993Y-1017269D01*
X1625295Y-1019505D01*
X1737664Y-1131824D01*
X1743862Y-1136954D01*
X1750568Y-1140510D01*
X1757781Y-1142695D01*
X1765807Y-1143508D01*
X1890166Y-1143508D01*
X1893874Y-1144219D01*
X1897024Y-1146200D01*
X1904390Y-1152956D01*
X1917496Y-1161338D01*
X1919630Y-1164590D01*
X1920392Y-1168400D01*
X1919630Y-1172210D01*
X1917496Y-1175461D01*
X1904390Y-1183843D01*
X1896973Y-1190650D01*
X1890775Y-1198626D01*
X1886000Y-1207465D01*
X1882749Y-1216964D01*
X1881073Y-1226870D01*
X1881073Y-1236929D01*
X1882749Y-1246835D01*
X1886000Y-1256334D01*
X1890775Y-1265174D01*
X1896973Y-1273149D01*
X1901647Y-1277416D01*
X1904034Y-1280718D01*
X1904949Y-1284681D01*
X1904187Y-1288694D01*
X1901952Y-1292098D01*
X1864055Y-1329994D01*
X1860753Y-1332230D01*
X1856841Y-1332992D01*
X1290218Y-1332992D01*
X1286306Y-1332230D01*
X1283004Y-1329994D01*
X1243787Y-1290777D01*
X1241552Y-1287475D01*
X1240790Y-1283614D01*
X1240790Y-1212850D01*
X1240078Y-1206550D01*
X1238199Y-1201064D01*
X1235100Y-1196187D01*
X1230985Y-1192072D01*
X1226108Y-1189024D01*
X1220622Y-1187094D01*
X1214323Y-1186383D01*
X1135481Y-1186383D01*
X1129131Y-1187094D01*
X1123696Y-1189024D01*
X1118768Y-1192072D01*
X1114704Y-1196187D01*
X1113485Y-1198067D01*
X1110691Y-1201013D01*
X1106932Y-1202639D01*
X1102868Y-1202639D01*
X1099108Y-1201013D01*
X1096314Y-1198067D01*
X1095095Y-1196187D01*
X1091031Y-1192072D01*
X1086104Y-1189024D01*
X1080668Y-1187094D01*
X1074318Y-1186383D01*
X1061262Y-1186383D01*
X1061262Y-1228445D01*
X1098804Y-1228445D01*
X1102715Y-1229207D01*
X1106017Y-1231442D01*
X1108202Y-1234744D01*
X1108964Y-1238605D01*
X1108964Y-1275994D01*
X1108202Y-1279855D01*
X1106017Y-1283157D01*
X1102715Y-1285392D01*
X1098804Y-1286154D01*
X1061262Y-1286154D01*
X1061262Y-1328216D01*
X1074318Y-1328216D01*
X1080668Y-1327505D01*
X1086104Y-1325575D01*
X1091031Y-1322527D01*
X1095095Y-1318412D01*
X1096314Y-1316532D01*
X1099108Y-1313586D01*
X1102868Y-1311960D01*
X1106932Y-1311960D01*
X1110691Y-1313586D01*
X1113485Y-1316532D01*
X1114704Y-1318412D01*
X1118768Y-1322527D01*
X1123696Y-1325575D01*
X1129131Y-1327505D01*
X1135481Y-1328216D01*
X1167790Y-1328216D01*
X1171702Y-1328978D01*
X1175004Y-1331163D01*
X1242364Y-1398524D01*
X1248562Y-1403654D01*
X1255268Y-1407210D01*
X1262481Y-1409395D01*
X1270508Y-1410208D01*
X1876552Y-1410208D01*
X1884578Y-1409395D01*
X1891792Y-1407210D01*
X1898497Y-1403654D01*
X1904695Y-1398524D01*
X2007463Y-1295806D01*
X2010765Y-1293571D01*
X2014677Y-1292809D01*
X2091334Y-1292809D01*
X2101799Y-1291945D01*
X2111502Y-1289456D01*
X2118868Y-1286256D01*
X2122779Y-1285392D01*
X2126691Y-1286154D01*
X2130044Y-1288338D01*
X2132279Y-1291640D01*
X2133092Y-1295552D01*
X2133092Y-1447292D01*
X2133904Y-1455318D01*
X2136089Y-1462532D01*
X2139645Y-1469237D01*
X2144776Y-1475435D01*
X2224582Y-1555292D01*
X2226868Y-1558798D01*
X2227529Y-1562963D01*
X2226462Y-1567027D01*
X2223820Y-1570329D01*
X2220264Y-1573276D01*
X2157476Y-1636064D01*
X2152345Y-1642262D01*
X2148789Y-1648968D01*
X2146604Y-1656181D01*
X2145792Y-1664207D01*
X2145792Y-1757781D01*
X2145030Y-1761693D01*
X2142794Y-1764995D01*
X2044395Y-1863394D01*
X2041093Y-1865630D01*
X2037181Y-1866392D01*
X1940356Y-1866392D01*
X1936191Y-1865477D01*
X1932787Y-1862988D01*
X1930654Y-1859280D01*
X1930298Y-1855012D01*
X1931670Y-1850999D01*
X1934616Y-1847850D01*
X1938528Y-1846224D01*
X1943658Y-1845310D01*
X1960575Y-1840280D01*
X1976882Y-1833473D01*
X1992375Y-1824989D01*
X2006854Y-1814931D01*
X2020214Y-1803349D01*
X2032254Y-1790395D01*
X2042820Y-1776272D01*
X2051862Y-1761134D01*
X2059228Y-1745081D01*
X2064867Y-1728317D01*
X2068677Y-1711096D01*
X2070607Y-1693519D01*
X2070709Y-1675892D01*
X2068880Y-1658315D01*
X2065223Y-1641043D01*
X2059787Y-1624228D01*
X2052574Y-1608124D01*
X2043633Y-1592884D01*
X2033168Y-1578660D01*
X2021281Y-1565605D01*
X2008022Y-1553921D01*
X1993595Y-1543710D01*
X1978202Y-1535074D01*
X1961997Y-1528165D01*
X1945081Y-1522984D01*
X1927758Y-1519631D01*
X1910130Y-1518158D01*
X1892503Y-1518513D01*
X1874977Y-1520799D01*
X1857806Y-1524914D01*
X1841195Y-1530858D01*
X1825243Y-1538478D01*
X1810257Y-1547774D01*
X1796288Y-1558645D01*
X1783588Y-1570888D01*
X1772259Y-1584452D01*
X1762455Y-1599133D01*
X1754225Y-1614728D01*
X1747723Y-1631137D01*
X1742998Y-1648155D01*
X1740103Y-1665579D01*
X1739087Y-1683207D01*
X1739950Y-1700885D01*
X1742693Y-1718310D01*
X1747266Y-1735378D01*
X1753616Y-1751838D01*
X1761693Y-1767535D01*
X1771396Y-1782318D01*
X1782622Y-1795932D01*
X1795221Y-1808327D01*
X1809038Y-1819300D01*
X1823974Y-1828749D01*
X1839823Y-1836521D01*
X1856384Y-1842566D01*
X1871624Y-1846376D01*
X1875383Y-1848205D01*
X1878075Y-1851355D01*
X1879295Y-1855368D01*
X1878787Y-1859534D01*
X1876653Y-1863089D01*
X1873250Y-1865528D01*
X1869135Y-1866392D01*
X1524254Y-1866392D01*
X1520139Y-1865528D01*
X1516684Y-1862988D01*
X1514602Y-1859330D01*
X1514195Y-1855114D01*
X1515618Y-1842262D01*
X1515668Y-1824583D01*
X1513890Y-1807006D01*
X1510233Y-1789734D01*
X1504746Y-1772970D01*
X1497533Y-1756867D01*
X1488643Y-1741576D01*
X1478178Y-1727352D01*
X1466240Y-1714347D01*
X1452981Y-1702663D01*
X1438605Y-1692452D01*
X1423212Y-1683816D01*
X1406956Y-1676857D01*
X1390091Y-1671675D01*
X1372717Y-1668373D01*
X1355140Y-1666849D01*
X1337462Y-1667256D01*
X1319987Y-1669542D01*
X1302816Y-1673656D01*
X1286154Y-1679549D01*
X1270254Y-1687220D01*
X1255217Y-1696516D01*
X1241298Y-1707337D01*
X1228598Y-1719630D01*
X1217269Y-1733143D01*
X1207414Y-1747824D01*
X1199235Y-1763471D01*
X1192733Y-1779879D01*
X1188008Y-1796897D01*
X1185113Y-1814322D01*
X1184097Y-1831949D01*
X1184960Y-1849577D01*
X1187653Y-1867052D01*
X1192225Y-1884070D01*
X1198626Y-1900580D01*
X1206703Y-1916277D01*
X1216355Y-1931009D01*
X1227582Y-1944674D01*
X1240180Y-1957070D01*
X1254048Y-1967992D01*
X1268933Y-1977440D01*
X1284782Y-1985264D01*
X1301394Y-1991309D01*
X1318514Y-1995576D01*
X1335989Y-1998014D01*
X1353667Y-1998522D01*
X1371295Y-1997202D01*
X1388618Y-1994001D01*
X1405585Y-1988972D01*
X1421892Y-1982216D01*
X1437335Y-1973732D01*
X1451864Y-1963623D01*
X1465173Y-1952040D01*
X1470050Y-1946859D01*
X1473403Y-1944471D01*
X1477467Y-1943607D01*
X2056892Y-1943607D01*
X2064918Y-1942795D01*
X2072132Y-1940610D01*
X2078837Y-1937054D01*
X2085035Y-1931924D01*
X2211324Y-1805635D01*
X2216454Y-1799437D01*
X2220010Y-1792732D01*
X2222195Y-1785518D01*
X2223008Y-1777492D01*
X2223008Y-1683918D01*
X2223770Y-1680006D01*
X2226005Y-1676704D01*
X2260904Y-1641805D01*
X2264206Y-1639570D01*
X2268118Y-1638807D01*
X2742692Y-1638807D01*
X2750718Y-1637995D01*
X2757932Y-1635810D01*
X2764637Y-1632254D01*
X2770835Y-1627124D01*
X2799232Y-1598777D01*
X2802534Y-1596593D01*
X2806395Y-1595831D01*
X3061208Y-1595831D01*
X3065119Y-1596593D01*
X3068421Y-1598777D01*
X3070606Y-1602079D01*
X3071368Y-1605991D01*
X3071368Y-1621637D01*
X3072079Y-1627936D01*
X3074009Y-1633423D01*
X3077108Y-1638300D01*
X3081172Y-1642414D01*
X3086100Y-1645462D01*
X3091535Y-1647393D01*
X3097885Y-1648104D01*
X3226714Y-1648104D01*
X3233064Y-1647393D01*
X3238500Y-1645462D01*
X3243427Y-1642414D01*
X3247491Y-1638300D01*
X3250590Y-1633423D01*
X3252520Y-1627936D01*
X3253232Y-1621637D01*
X3253232Y-1605991D01*
X3253994Y-1602079D01*
X3256178Y-1598777D01*
X3259480Y-1596593D01*
X3263392Y-1595831D01*
X3340608Y-1595831D01*
X3344519Y-1596593D01*
X3347821Y-1598777D01*
X3350006Y-1602079D01*
X3350768Y-1605991D01*
X3350768Y-1621637D01*
X3351479Y-1627936D01*
X3353409Y-1633423D01*
X3356508Y-1638300D01*
X3360572Y-1642414D01*
X3365500Y-1645462D01*
X3370935Y-1647393D01*
X3377285Y-1648104D01*
X3506114Y-1648104D01*
X3512464Y-1647393D01*
X3517900Y-1645462D01*
X3522827Y-1642414D01*
X3526891Y-1638300D01*
X3529990Y-1633423D01*
X3531920Y-1627936D01*
X3532632Y-1621637D01*
X3532632Y-1492758D01*
X3531920Y-1486458D01*
X3529990Y-1480972D01*
X3526891Y-1476095D01*
X3522827Y-1471980D01*
X3517900Y-1468932D01*
X3512464Y-1467002D01*
X3506114Y-1466291D01*
X3377285Y-1466291D01*
X3370935Y-1467002D01*
X3365500Y-1468932D01*
X3360572Y-1471980D01*
X3356508Y-1476095D01*
X3353409Y-1480972D01*
X3351479Y-1486458D01*
X3350768Y-1492758D01*
X3350768Y-1508455D01*
X3350006Y-1512316D01*
X3347821Y-1515618D01*
X3344519Y-1517802D01*
X3340608Y-1518615D01*
X3263392Y-1518615D01*
X3259480Y-1517802D01*
X3256178Y-1515618D01*
X3253994Y-1512316D01*
X3253232Y-1508455D01*
X3253232Y-1492758D01*
X3252520Y-1486458D01*
X3250590Y-1480972D01*
X3247491Y-1476095D01*
X3243427Y-1471980D01*
X3238500Y-1468932D01*
X3233064Y-1467002D01*
X3226714Y-1466291D01*
X3211068Y-1466291D01*
X3207156Y-1465529D01*
X3203905Y-1463294D01*
X3201670Y-1460042D01*
X3200908Y-1456131D01*
X3200908Y-533908D01*
X3200095Y-525881D01*
X3197910Y-518668D01*
X3194354Y-511962D01*
X3189224Y-505764D01*
X3135680Y-452170D01*
X3133496Y-448919D01*
X3132734Y-445008D01*
X3133496Y-441096D01*
X3135680Y-437845D01*
X3138982Y-435609D01*
X3142894Y-434848D01*
X3167380Y-434848D01*
X3167380Y-375920D01*
X3108452Y-375920D01*
X3108452Y-400405D01*
X3107690Y-404317D01*
X3105454Y-407619D01*
X3102203Y-409803D01*
X3098292Y-410565D01*
X3094380Y-409803D01*
X3091129Y-407619D01*
X3059734Y-376224D01*
X3057601Y-373126D01*
X3056737Y-369468D01*
X3057296Y-365760D01*
X3060141Y-357276D01*
X3062833Y-343865D01*
X3063748Y-330200D01*
X3062833Y-316534D01*
X3060141Y-303123D01*
X3055772Y-290169D01*
X3049727Y-277876D01*
X3042107Y-266496D01*
X3033064Y-256235D01*
X3022803Y-247192D01*
X3011424Y-239572D01*
X2999130Y-233527D01*
X2986176Y-229158D01*
X2972765Y-226466D01*
X2959100Y-225552D01*
X2945434Y-226466D01*
X2932023Y-229158D01*
X2919069Y-233527D01*
X2906776Y-239572D01*
X2895396Y-247192D01*
X2885135Y-256235D01*
X2876092Y-266496D01*
X2868472Y-277876D01*
X2862427Y-290169D01*
X2858058Y-303123D01*
X2855366Y-316534D01*
X2854452Y-330200D01*
X2855366Y-343865D01*
X2858058Y-357276D01*
X2862783Y-371094D01*
X2863291Y-375056D01*
X2862275Y-378866D01*
X2859836Y-382016D01*
X2856382Y-383997D01*
X2852470Y-384505D01*
X2848610Y-383489D01*
X2845460Y-381050D01*
X2839008Y-373583D01*
X2812135Y-346710D01*
X2809798Y-343103D01*
X2809138Y-338836D01*
X2809748Y-330200D01*
X2808833Y-316534D01*
X2806141Y-303123D01*
X2801772Y-290169D01*
X2795727Y-277876D01*
X2788107Y-266496D01*
X2779064Y-256235D01*
X2768803Y-247192D01*
X2757424Y-239572D01*
X2745130Y-233527D01*
X2732176Y-229158D01*
X2718765Y-226466D01*
X2705100Y-225552D01*
X2691434Y-226466D01*
X2678023Y-229158D01*
X2665069Y-233527D01*
X2652776Y-239572D01*
X2641396Y-247192D01*
X2631135Y-256235D01*
X2622092Y-266496D01*
X2614472Y-277876D01*
X2608427Y-290169D01*
X2604058Y-303123D01*
X2601366Y-316534D01*
X2600452Y-330200D01*
X2601366Y-343865D01*
X2604058Y-357276D01*
X2608427Y-370230D01*
X2614472Y-382524D01*
X2622092Y-393903D01*
X2631135Y-404164D01*
X2641396Y-413207D01*
X2652776Y-420827D01*
X2665069Y-426872D01*
X2678023Y-431241D01*
X2691434Y-433933D01*
X2705100Y-434848D01*
X2713736Y-434238D01*
X2718003Y-434898D01*
X2721610Y-437235D01*
X2726994Y-442620D01*
X2729230Y-445922D01*
X2729992Y-449834D01*
X2729992Y-646074D01*
X2729331Y-649732D01*
X2727401Y-652881D01*
X2724505Y-655116D01*
X2719374Y-656386D01*
X2713939Y-658266D01*
X2709011Y-661365D01*
X2704947Y-665480D01*
X2702458Y-669442D01*
X2700172Y-671982D01*
X2697175Y-673608D01*
X2693822Y-674217D01*
X2129790Y-674217D01*
X2121357Y-674725D01*
X2119122Y-675030D01*
X2110994Y-676910D01*
X2101138Y-680770D01*
X2092096Y-686257D01*
X2090318Y-687578D01*
X2083968Y-693166D01*
X2023922Y-753211D01*
X2020671Y-755396D01*
X2016760Y-756158D01*
X2012848Y-755396D01*
X2009597Y-753211D01*
X1933905Y-677519D01*
X1931670Y-674217D01*
X1930907Y-670306D01*
X1930907Y-425602D01*
X1931365Y-422605D01*
X1932686Y-419862D01*
X1934718Y-417626D01*
X1941474Y-412292D01*
X1951329Y-402082D01*
X1959813Y-390702D01*
X1966823Y-378307D01*
X1972157Y-365150D01*
X1975764Y-351383D01*
X1977542Y-337312D01*
X1977542Y-323088D01*
X1975764Y-309016D01*
X1972157Y-295249D01*
X1966823Y-282092D01*
X1959813Y-269697D01*
X1951329Y-258317D01*
X1941474Y-248107D01*
X1930349Y-239267D01*
X1918207Y-231902D01*
X1905203Y-226161D01*
X1891588Y-222097D01*
X1877568Y-219811D01*
X1863343Y-219354D01*
X1849221Y-220725D01*
X1835353Y-223875D01*
X1821992Y-228803D01*
X1809394Y-235356D01*
X1797761Y-243484D01*
X1787245Y-253034D01*
X1778050Y-263855D01*
X1770278Y-275793D01*
X1764131Y-288594D01*
X1759661Y-302056D01*
X1758340Y-308762D01*
X1757070Y-312013D01*
X1754835Y-314655D01*
X1751787Y-316382D01*
X1748383Y-316992D01*
X1471269Y-316992D01*
X1466138Y-315823D01*
X1459839Y-315112D01*
X1360982Y-315112D01*
X1354632Y-315823D01*
X1349197Y-317703D01*
X1344269Y-320802D01*
X1340205Y-324866D01*
X1338884Y-326999D01*
X1336243Y-329793D01*
X1332788Y-331419D01*
X1328978Y-331673D01*
X1325372Y-330454D01*
X1322324Y-327964D01*
X1259281Y-264871D01*
X1257096Y-261569D01*
X1256284Y-257708D01*
X1256284Y-246583D01*
X1255572Y-240233D01*
X1253693Y-234797D01*
X1250594Y-229870D01*
X1246530Y-225806D01*
X1241602Y-222707D01*
X1236167Y-220776D01*
X1229817Y-220065D01*
X1130960Y-220065D01*
X1124661Y-220776D01*
X1119174Y-222707D01*
X1114298Y-225806D01*
X1110183Y-229870D01*
X1107135Y-234797D01*
X1105204Y-240233D01*
X1104493Y-246583D01*
X1104493Y-325424D01*
X1105204Y-331724D01*
X1107135Y-337210D01*
X1110183Y-342087D01*
X1114298Y-346202D01*
X1119174Y-349250D01*
X1124661Y-351180D01*
X1130960Y-351891D01*
X1234541Y-351840D01*
X1237386Y-352806D01*
X1239824Y-354634D01*
X1253794Y-368604D01*
X1256030Y-371906D01*
X1256792Y-375818D01*
X1256792Y-403860D01*
X1256030Y-407670D01*
X1253947Y-410921D01*
X1250746Y-413156D01*
X1246936Y-414020D01*
X1243126Y-413410D01*
X1236065Y-410819D01*
X1229817Y-410108D01*
X1130960Y-410108D01*
X1124661Y-410819D01*
X1119174Y-412699D01*
X1114298Y-415798D01*
X1110183Y-419912D01*
X1107135Y-424789D01*
X1105204Y-430225D01*
X1104493Y-436575D01*
X1104493Y-457200D01*
X1103731Y-461060D01*
X1101496Y-464362D01*
X1061364Y-504494D01*
X1058062Y-506730D01*
X1054201Y-507492D01*
X640334Y-507492D01*
X636422Y-506730D01*
X633120Y-504494D01*
X556158Y-427532D01*
X553821Y-423976D01*
X553212Y-419760D01*
X554329Y-415696D01*
X557174Y-412292D01*
X567029Y-402082D01*
X575513Y-390702D01*
X582523Y-378307D01*
X587857Y-365150D01*
X591464Y-351383D01*
X593242Y-337312D01*
X593242Y-323088D01*
X591464Y-309016D01*
X587857Y-295249D01*
X582523Y-282092D01*
X575513Y-269697D01*
X567029Y-258317D01*
X557174Y-248107D01*
X546049Y-239267D01*
X533908Y-231902D01*
X520903Y-226161D01*
X507288Y-222097D01*
X493268Y-219811D01*
X479043Y-219354D01*
X464921Y-220725D01*
X451053Y-223875D01*
X437692Y-228803D01*
X425094Y-235356D01*
X413461Y-243484D01*
X402945Y-253034D01*
X393750Y-263855D01*
X385978Y-275793D01*
X379831Y-288594D01*
X375361Y-302056D01*
X372618Y-316026D01*
X371703Y-330200D01*
X372618Y-344373D01*
X375361Y-358343D01*
X379831Y-371805D01*
X385978Y-384606D01*
X393750Y-396544D01*
X402945Y-407365D01*
X416559Y-419709D01*
X418084Y-422554D01*
X418592Y-425754D01*
X418592Y-444195D01*
X419100Y-452628D01*
X421335Y-462940D01*
X421995Y-465074D01*
X425196Y-472795D01*
X426212Y-474776D01*
X431952Y-483666D01*
X437540Y-489966D01*
X564134Y-616559D01*
X570433Y-622147D01*
X579323Y-627888D01*
X581304Y-628904D01*
X589026Y-632104D01*
X591159Y-632764D01*
X601472Y-635000D01*
X609904Y-635508D01*
X1084580Y-635508D01*
X1086662Y-635355D01*
X1090726Y-635965D01*
X1094181Y-638048D01*
X1096568Y-641350D01*
X1097483Y-645312D01*
X1096721Y-649325D01*
X1094486Y-652678D01*
X905154Y-842060D01*
X901852Y-844245D01*
X897940Y-845058D01*
X805942Y-845058D01*
X799642Y-845769D01*
X794156Y-847648D01*
X789279Y-850747D01*
X785164Y-854811D01*
X782116Y-859739D01*
X780186Y-865174D01*
X779475Y-871524D01*
X779475Y-1008075D01*
X780186Y-1014425D01*
X782116Y-1019860D01*
X785164Y-1024788D01*
X789279Y-1028852D01*
X794156Y-1031951D01*
X796899Y-1032916D01*
X800404Y-1034999D01*
X802792Y-1038301D01*
X803706Y-1042263D01*
X802995Y-1046276D01*
X799795Y-1050594D01*
X796493Y-1052830D01*
X792581Y-1053592D01*
X727760Y-1053592D01*
X723798Y-1052779D01*
X720445Y-1050493D01*
X718261Y-1047089D01*
X717600Y-1043127D01*
X718515Y-1039164D01*
X720902Y-1035913D01*
X724408Y-1033830D01*
X729843Y-1031951D01*
X734720Y-1028852D01*
X738835Y-1024788D01*
X741883Y-1019860D01*
X743813Y-1014425D01*
X744524Y-1008075D01*
X744524Y-980592D01*
X696671Y-980592D01*
X696671Y-1034542D01*
X700532Y-1034542D01*
X704545Y-1035405D01*
X707898Y-1037742D01*
X710082Y-1041247D01*
X710692Y-1045311D01*
X709625Y-1049274D01*
X707085Y-1052474D01*
X703478Y-1054455D01*
X696468Y-1056589D01*
X689762Y-1060145D01*
X683564Y-1065276D01*
X633476Y-1115364D01*
X628345Y-1121562D01*
X624789Y-1128268D01*
X622604Y-1135481D01*
X621792Y-1143508D01*
X621792Y-1456131D01*
X621030Y-1460042D01*
X618794Y-1463294D01*
X615543Y-1465529D01*
X611632Y-1466291D01*
X583285Y-1466291D01*
X576935Y-1467002D01*
X571500Y-1468932D01*
X566572Y-1471980D01*
X562508Y-1476095D01*
X559409Y-1480972D01*
X557479Y-1486458D01*
X556768Y-1492758D01*
X556768Y-1508404D01*
X556006Y-1512316D01*
X553821Y-1515618D01*
X550519Y-1517802D01*
X546608Y-1518564D01*
X469392Y-1518564D01*
X465480Y-1517802D01*
X462178Y-1515618D01*
X459993Y-1512316D01*
X459232Y-1508404D01*
X459232Y-1492758D01*
X458520Y-1486458D01*
X456590Y-1480972D01*
X453491Y-1476095D01*
X449427Y-1471980D01*
X444500Y-1468932D01*
X439064Y-1467002D01*
X432714Y-1466291D01*
X303885Y-1466291D01*
X297535Y-1467002D01*
X292100Y-1468932D01*
X287172Y-1471980D01*
X283108Y-1476095D01*
X280009Y-1480972D01*
X278079Y-1486458D01*
X277368Y-1492758D01*
X277368Y-1621637D01*
X278079Y-1627936D01*
X280009Y-1633423D01*
X283108Y-1638300D01*
X287172Y-1642414D01*
X292100Y-1645462D01*
X297535Y-1647393D01*
X303885Y-1648104D01*
X432714Y-1648104D01*
X439064Y-1647393D01*
X444500Y-1645462D01*
X449427Y-1642414D01*
X453491Y-1638300D01*
X456590Y-1633423D01*
X458520Y-1627936D01*
X459232Y-1621637D01*
X459232Y-1605940D01*
X459993Y-1602079D01*
X462178Y-1598777D01*
X465480Y-1596593D01*
X469392Y-1595780D01*
X546608Y-1595780D01*
X550519Y-1596593D01*
X553821Y-1598777D01*
X556006Y-1602079D01*
X556768Y-1605940D01*
X556768Y-1621637D01*
X557479Y-1627936D01*
X559409Y-1633423D01*
X562508Y-1638300D01*
X566572Y-1642414D01*
X571500Y-1645462D01*
X576935Y-1647393D01*
X583285Y-1648104D01*
X712114Y-1648104D01*
X718464Y-1647393D01*
X723900Y-1645462D01*
X728827Y-1642414D01*
X732891Y-1638300D01*
X735990Y-1633423D01*
X737920Y-1627936D01*
X738632Y-1621637D01*
X738632Y-1605991D01*
X739394Y-1602079D01*
X741578Y-1598777D01*
X744880Y-1596593D01*
X748792Y-1595831D01*
X903173Y-1595831D01*
X907034Y-1596593D01*
X910336Y-1598777D01*
X911910Y-1600352D01*
X919987Y-1605991D01*
X928878Y-1610156D01*
X938377Y-1612696D01*
X948131Y-1613560D01*
X957935Y-1612696D01*
X967435Y-1610156D01*
X976325Y-1605991D01*
X984351Y-1600352D01*
X991311Y-1593443D01*
X996950Y-1585366D01*
X1001115Y-1576476D01*
X1003655Y-1566976D01*
X1004468Y-1557223D01*
X1003655Y-1547418D01*
X1001725Y-1540357D01*
X1001572Y-1535988D01*
X1003249Y-1531924D01*
X1006500Y-1528927D01*
X1010666Y-1527606D01*
X1015034Y-1528165D01*
X1018743Y-1530553D01*
X1075994Y-1587804D01*
X1078230Y-1591106D01*
X1078992Y-1595018D01*
X1078992Y-2044192D01*
X1079804Y-2052218D01*
X1081989Y-2059432D01*
X1085545Y-2066137D01*
X1090676Y-2072335D01*
X1472539Y-2454249D01*
X1474876Y-2457805D01*
X1475486Y-2462072D01*
X1474317Y-2466187D01*
X1471574Y-2469438D01*
X1462938Y-2476195D01*
X1450187Y-2488438D01*
X1438859Y-2502001D01*
X1429054Y-2516682D01*
X1420825Y-2532278D01*
X1414322Y-2548737D01*
X1409598Y-2565755D01*
X1406753Y-2583129D01*
X1405737Y-2600756D01*
X1406550Y-2618435D01*
X1409293Y-2635859D01*
X1413865Y-2652928D01*
X1420215Y-2669387D01*
X1428292Y-2685084D01*
X1437995Y-2699867D01*
X1449222Y-2713482D01*
X1461820Y-2725877D01*
X1475638Y-2736850D01*
X1490573Y-2746298D01*
X1506423Y-2754071D01*
X1523034Y-2760116D01*
X1540154Y-2764383D01*
X1557629Y-2766822D01*
G37*
G36*
X579475Y-899007D02*
G01*
X627329Y-899007D01*
X627329Y-845058D01*
X605942Y-845058D01*
X599592Y-845769D01*
X594156Y-847648D01*
X589280Y-850747D01*
X585165Y-854811D01*
X582066Y-859739D01*
X580186Y-865174D01*
X579475Y-871524D01*
G37*
G36*
X605942Y-1034542D02*
G01*
X627329Y-1034542D01*
X627329Y-980592D01*
X579475Y-980592D01*
X579475Y-1008075D01*
X580186Y-1014425D01*
X582066Y-1019860D01*
X585165Y-1024788D01*
X589280Y-1028852D01*
X594156Y-1031951D01*
X599592Y-1033830D01*
G37*
G36*
X947369Y-2404821D02*
G01*
X964996Y-2403500D01*
X982319Y-2400300D01*
X999286Y-2395270D01*
X1015593Y-2388514D01*
X1031036Y-2380030D01*
X1045565Y-2369921D01*
X1058875Y-2358339D01*
X1070914Y-2345436D01*
X1081532Y-2331313D01*
X1090574Y-2316124D01*
X1097940Y-2300071D01*
X1103528Y-2283358D01*
X1107338Y-2266086D01*
X1109319Y-2248560D01*
X1109370Y-2230882D01*
X1107592Y-2213305D01*
X1103934Y-2196033D01*
X1098448Y-2179269D01*
X1091234Y-2163165D01*
X1082344Y-2147874D01*
X1071880Y-2133650D01*
X1059942Y-2120646D01*
X1046734Y-2108962D01*
X1032306Y-2098751D01*
X1016914Y-2090115D01*
X1000658Y-2083155D01*
X983792Y-2078024D01*
X966419Y-2074672D01*
X948842Y-2073148D01*
X931164Y-2073554D01*
X913688Y-2075840D01*
X896518Y-2079955D01*
X879856Y-2085848D01*
X863955Y-2093518D01*
X848918Y-2102815D01*
X834999Y-2113635D01*
X822299Y-2125929D01*
X810971Y-2139442D01*
X801116Y-2154123D01*
X792937Y-2169769D01*
X786434Y-2186178D01*
X781710Y-2203196D01*
X778814Y-2220620D01*
X777798Y-2238248D01*
X778662Y-2255875D01*
X781405Y-2273350D01*
X785926Y-2290368D01*
X792327Y-2306878D01*
X800404Y-2322576D01*
X810056Y-2337308D01*
X821283Y-2350973D01*
X833882Y-2363368D01*
X847750Y-2374290D01*
X862634Y-2383739D01*
X878484Y-2391562D01*
X895096Y-2397607D01*
X912215Y-2401874D01*
X929690Y-2404313D01*
G37*
G36*
X969010Y-1228445D02*
G01*
X1008583Y-1228445D01*
X1008583Y-1186383D01*
X995476Y-1186383D01*
X989177Y-1187094D01*
X983691Y-1189024D01*
X978814Y-1192072D01*
X974699Y-1196187D01*
X971600Y-1201064D01*
X969721Y-1206550D01*
X969010Y-1212850D01*
G37*
G36*
X995476Y-1328216D02*
G01*
X1008583Y-1328216D01*
X1008583Y-1286154D01*
X969010Y-1286154D01*
X969010Y-1301750D01*
X969721Y-1308049D01*
X971600Y-1313535D01*
X974699Y-1318412D01*
X978814Y-1322527D01*
X983691Y-1325575D01*
X989177Y-1327505D01*
G37*
G36*
X635000Y-4333748D02*
G01*
X648665Y-4332833D01*
X662076Y-4330141D01*
X675030Y-4325772D01*
X687324Y-4319727D01*
X698703Y-4312107D01*
X708964Y-4303064D01*
X718007Y-4292803D01*
X725627Y-4281424D01*
X731672Y-4269130D01*
X736041Y-4256176D01*
X738733Y-4242765D01*
X739648Y-4229100D01*
X738733Y-4215434D01*
X736041Y-4202023D01*
X731672Y-4189069D01*
X725627Y-4176776D01*
X718007Y-4165396D01*
X708964Y-4155135D01*
X698703Y-4146092D01*
X687324Y-4138472D01*
X675030Y-4132427D01*
X662076Y-4128058D01*
X648665Y-4125366D01*
X635000Y-4124451D01*
X621334Y-4125366D01*
X607923Y-4128058D01*
X594969Y-4132427D01*
X582676Y-4138472D01*
X571296Y-4146092D01*
X561035Y-4155135D01*
X551992Y-4165396D01*
X544372Y-4176776D01*
X538327Y-4189069D01*
X533958Y-4202023D01*
X531266Y-4215434D01*
X530352Y-4229100D01*
X531266Y-4242765D01*
X533958Y-4256176D01*
X538327Y-4269130D01*
X544372Y-4281424D01*
X551992Y-4292803D01*
X561035Y-4303064D01*
X571296Y-4312107D01*
X582676Y-4319727D01*
X594969Y-4325772D01*
X607923Y-4330141D01*
X621334Y-4332833D01*
G37*

%LPD*%
G36*
X748792Y-1518615D02*
G01*
X744880Y-1517802D01*
X741578Y-1515618D01*
X739394Y-1512316D01*
X738632Y-1508455D01*
X738632Y-1492758D01*
X737920Y-1486458D01*
X735990Y-1480972D01*
X732891Y-1476095D01*
X728827Y-1471980D01*
X723900Y-1468932D01*
X718464Y-1467002D01*
X712114Y-1466291D01*
X709168Y-1466291D01*
X705256Y-1465529D01*
X702005Y-1463294D01*
X699770Y-1460042D01*
X699008Y-1456131D01*
X699008Y-1163218D01*
X699770Y-1159306D01*
X702005Y-1156004D01*
X724204Y-1133805D01*
X727506Y-1131570D01*
X731418Y-1130808D01*
X812292Y-1130808D01*
X820318Y-1129995D01*
X827532Y-1127810D01*
X834237Y-1124254D01*
X840435Y-1119124D01*
X888949Y-1070660D01*
X894080Y-1064412D01*
X897636Y-1057757D01*
X899820Y-1050544D01*
X900480Y-1043736D01*
X901547Y-1040130D01*
X903782Y-1037183D01*
X906932Y-1035253D01*
X910590Y-1034542D01*
X918057Y-1034542D01*
X924407Y-1033830D01*
X929843Y-1031951D01*
X934719Y-1028852D01*
X938834Y-1024788D01*
X941933Y-1019860D01*
X943813Y-1014425D01*
X944524Y-1008075D01*
X944524Y-916076D01*
X945337Y-912164D01*
X947521Y-908862D01*
X1141730Y-714705D01*
X1145032Y-712470D01*
X1148892Y-711708D01*
X1205992Y-711708D01*
X1214018Y-710895D01*
X1221232Y-708710D01*
X1227937Y-705154D01*
X1234135Y-700024D01*
X1322324Y-611835D01*
X1327454Y-605637D01*
X1331010Y-598932D01*
X1333195Y-591718D01*
X1334008Y-583692D01*
X1334008Y-453135D01*
X1334770Y-449326D01*
X1336852Y-446074D01*
X1340053Y-443839D01*
X1343863Y-442976D01*
X1347673Y-443585D01*
X1354734Y-446227D01*
X1360982Y-446887D01*
X1459839Y-446887D01*
X1466138Y-446176D01*
X1471269Y-445008D01*
X1792732Y-445008D01*
X1796643Y-445770D01*
X1799894Y-448005D01*
X1802130Y-451307D01*
X1802892Y-455168D01*
X1802892Y-700735D01*
X1803400Y-709168D01*
X1805635Y-719480D01*
X1806295Y-721614D01*
X1809496Y-729335D01*
X1810512Y-731316D01*
X1816252Y-740206D01*
X1821840Y-746506D01*
X1870303Y-794969D01*
X1872488Y-798220D01*
X1873250Y-802132D01*
X1872488Y-806043D01*
X1870303Y-809294D01*
X1867001Y-811530D01*
X1863089Y-812292D01*
X1829307Y-812292D01*
X1821281Y-813104D01*
X1814068Y-815289D01*
X1807362Y-818845D01*
X1801164Y-823976D01*
X1782521Y-842568D01*
X1779625Y-844600D01*
X1776222Y-845515D01*
X1768195Y-846226D01*
X1758746Y-848766D01*
X1749806Y-852881D01*
X1741779Y-858519D01*
X1734820Y-865479D01*
X1729181Y-873506D01*
X1725066Y-882446D01*
X1722526Y-891895D01*
X1721662Y-901700D01*
X1722526Y-911504D01*
X1725066Y-920953D01*
X1729181Y-929894D01*
X1734820Y-937920D01*
X1741779Y-944880D01*
X1749806Y-950518D01*
X1758746Y-954633D01*
X1768195Y-957173D01*
X1778000Y-958037D01*
X1787804Y-957173D01*
X1797253Y-954633D01*
X1806193Y-950518D01*
X1814220Y-944880D01*
X1821180Y-937920D01*
X1826818Y-929894D01*
X1830933Y-920953D01*
X1833473Y-911504D01*
X1834184Y-903478D01*
X1835099Y-900074D01*
X1837131Y-897178D01*
X1841804Y-892505D01*
X1845106Y-890269D01*
X1849018Y-889508D01*
X1890166Y-889508D01*
X1893874Y-890219D01*
X1897024Y-892200D01*
X1904390Y-898956D01*
X1917496Y-907338D01*
X1919630Y-910590D01*
X1920392Y-914400D01*
X1919630Y-918210D01*
X1917496Y-921461D01*
X1904390Y-929843D01*
X1896973Y-936650D01*
X1890775Y-944626D01*
X1886000Y-953465D01*
X1882749Y-962964D01*
X1881073Y-972870D01*
X1881073Y-982929D01*
X1882749Y-992835D01*
X1886000Y-1002334D01*
X1890775Y-1011174D01*
X1896973Y-1019149D01*
X1904390Y-1025956D01*
X1917496Y-1034338D01*
X1919630Y-1037590D01*
X1920392Y-1041400D01*
X1919630Y-1045210D01*
X1917496Y-1048461D01*
X1904390Y-1056843D01*
X1897024Y-1063599D01*
X1893874Y-1065580D01*
X1890166Y-1066292D01*
X1785518Y-1066292D01*
X1781606Y-1065530D01*
X1778304Y-1063294D01*
X1665935Y-950976D01*
X1659737Y-945845D01*
X1653032Y-942289D01*
X1645818Y-940104D01*
X1637792Y-939292D01*
X1538833Y-939292D01*
X1535125Y-938580D01*
X1531975Y-936599D01*
X1524609Y-929843D01*
X1511503Y-921461D01*
X1509369Y-918210D01*
X1508607Y-914400D01*
X1509369Y-910590D01*
X1511503Y-907338D01*
X1524609Y-898956D01*
X1532026Y-892149D01*
X1538224Y-884174D01*
X1543202Y-874725D01*
X1473606Y-874725D01*
X1473606Y-906830D01*
X1472793Y-910742D01*
X1470609Y-913993D01*
X1467307Y-916228D01*
X1463446Y-916990D01*
X1361033Y-916990D01*
X1357172Y-916228D01*
X1353870Y-913993D01*
X1351686Y-910742D01*
X1350873Y-906830D01*
X1350873Y-874725D01*
X1281277Y-874725D01*
X1286256Y-884174D01*
X1292453Y-892149D01*
X1299870Y-898956D01*
X1312976Y-907338D01*
X1315110Y-910590D01*
X1315872Y-914400D01*
X1315110Y-918210D01*
X1312976Y-921461D01*
X1299870Y-929843D01*
X1292504Y-936599D01*
X1289354Y-938580D01*
X1285646Y-939292D01*
X1258722Y-939292D01*
X1255318Y-938733D01*
X1252321Y-937006D01*
X1250086Y-934466D01*
X1246276Y-928217D01*
X1242212Y-924204D01*
X1240332Y-922985D01*
X1237386Y-920191D01*
X1235760Y-916432D01*
X1235760Y-912368D01*
X1237386Y-908608D01*
X1240332Y-905814D01*
X1242212Y-904595D01*
X1246327Y-900531D01*
X1249375Y-895603D01*
X1251305Y-890168D01*
X1252016Y-883818D01*
X1252016Y-870762D01*
X1209954Y-870762D01*
X1209954Y-908303D01*
X1209192Y-912215D01*
X1206957Y-915517D01*
X1203655Y-917702D01*
X1199794Y-918464D01*
X1162405Y-918464D01*
X1158544Y-917702D01*
X1155242Y-915517D01*
X1153007Y-912215D01*
X1152245Y-908303D01*
X1152245Y-870762D01*
X1110183Y-870762D01*
X1110183Y-883818D01*
X1110894Y-890168D01*
X1112824Y-895603D01*
X1115872Y-900531D01*
X1119987Y-904595D01*
X1121867Y-905814D01*
X1124813Y-908608D01*
X1126439Y-912368D01*
X1126439Y-916432D01*
X1124813Y-920191D01*
X1121867Y-922985D01*
X1119987Y-924204D01*
X1115872Y-928268D01*
X1112824Y-933196D01*
X1110894Y-938631D01*
X1110183Y-944981D01*
X1110183Y-992632D01*
X1109421Y-996543D01*
X1107236Y-999794D01*
X1103934Y-1002030D01*
X1100023Y-1002792D01*
X1076147Y-1002792D01*
X1072286Y-1002030D01*
X1068984Y-999794D01*
X1067409Y-998219D01*
X1059332Y-992581D01*
X1050442Y-988466D01*
X1040942Y-985926D01*
X1031189Y-985062D01*
X1021384Y-985926D01*
X1011885Y-988466D01*
X1002995Y-992581D01*
X994968Y-998219D01*
X988009Y-1005179D01*
X982370Y-1013206D01*
X978204Y-1022146D01*
X975664Y-1031595D01*
X974852Y-1041400D01*
X975664Y-1051204D01*
X978204Y-1060653D01*
X980033Y-1064514D01*
X980998Y-1068476D01*
X980287Y-1072489D01*
X978153Y-1075893D01*
X974801Y-1078179D01*
X970838Y-1078992D01*
X940308Y-1078992D01*
X932281Y-1079804D01*
X925068Y-1081989D01*
X918362Y-1085545D01*
X912164Y-1090676D01*
X862076Y-1140764D01*
X856945Y-1146962D01*
X853389Y-1153668D01*
X851204Y-1160881D01*
X850392Y-1168908D01*
X850392Y-1421892D01*
X851204Y-1429918D01*
X853389Y-1437132D01*
X856945Y-1443837D01*
X861720Y-1449679D01*
X867562Y-1454454D01*
X874268Y-1458010D01*
X881481Y-1460195D01*
X889508Y-1461008D01*
X944981Y-1461008D01*
X948893Y-1461770D01*
X952195Y-1464005D01*
X974801Y-1486611D01*
X977137Y-1490319D01*
X977747Y-1494688D01*
X976426Y-1498854D01*
X973429Y-1502105D01*
X969365Y-1503781D01*
X964996Y-1503578D01*
X957935Y-1501698D01*
X948131Y-1500835D01*
X938377Y-1501698D01*
X928878Y-1504238D01*
X919987Y-1508404D01*
X911910Y-1514043D01*
X910336Y-1515618D01*
X907034Y-1517802D01*
X903173Y-1518615D01*
G37*

%LPC*%
G36*
X1281277Y-827074D02*
G01*
X1350873Y-827074D01*
X1350873Y-789990D01*
X1337665Y-789990D01*
X1327200Y-790854D01*
X1317498Y-793343D01*
X1308252Y-797356D01*
X1299870Y-802843D01*
X1292453Y-809650D01*
X1286256Y-817625D01*
G37*
G36*
X1473606Y-827074D02*
G01*
X1543202Y-827074D01*
X1538224Y-817625D01*
X1532026Y-809650D01*
X1524609Y-802843D01*
X1516227Y-797356D01*
X1506982Y-793343D01*
X1497279Y-790854D01*
X1486814Y-789990D01*
X1473606Y-789990D01*
G37*
G36*
X1110183Y-818083D02*
G01*
X1152245Y-818083D01*
X1152245Y-778510D01*
X1136650Y-778510D01*
X1130350Y-779221D01*
X1124864Y-781100D01*
X1119987Y-784199D01*
X1115872Y-788314D01*
X1112824Y-793191D01*
X1110894Y-798677D01*
X1110183Y-804976D01*
G37*
G36*
X1209954Y-818083D02*
G01*
X1252016Y-818083D01*
X1252016Y-804976D01*
X1251305Y-798677D01*
X1249375Y-793191D01*
X1246327Y-788314D01*
X1242212Y-784199D01*
X1237335Y-781100D01*
X1231849Y-779221D01*
X1225550Y-778510D01*
X1209954Y-778510D01*
G37*

%LPD*%
D10*
X1412239Y-850900D02*
G01*
X1405737Y-844397D01*
X1181100Y-844397D01*
X1346200Y-736600D02*
G01*
X1238402Y-844397D01*
X1181100Y-844397D01*
X1034897Y-1257300D02*
G01*
X1054100Y-1276502D01*
X1054100Y-1384300D01*
X1104900Y-1435100D01*
X1155700Y-1435100D01*
X419100Y-2833623D02*
G01*
X317500Y-2832100D01*
X266700Y-2882900D01*
X266700Y-3314700D01*
X382523Y-3430523D01*
X444500Y-3430523D01*
X2866390Y-2239010D02*
G01*
X2692400Y-2413000D01*
X2247900Y-2413000D01*
X1765300Y-2895600D01*
X1371600Y-2895600D01*
X990600Y-2514600D01*
X787400Y-2514600D01*
X368300Y-2095500D01*
X368300Y-1897126D01*
X2460015Y-1832683D02*
G01*
X1828800Y-2463899D01*
X1828800Y-2755900D01*
X1739900Y-2844800D01*
X1397000Y-2844800D01*
X1016000Y-2463800D01*
X800100Y-2463800D01*
X647700Y-2311400D01*
X647700Y-1897202D01*
X647700Y-1557197D02*
G01*
X660400Y-1544497D01*
X660400Y-1143000D01*
X711200Y-1092200D01*
X812800Y-1092200D01*
X861999Y-1043000D01*
X861999Y-939800D01*
X647700Y-1557197D02*
G01*
X948143Y-1557197D01*
X1349982Y-1832683D02*
G01*
X1422298Y-1905000D01*
X2057400Y-1905000D01*
X2184400Y-1778000D01*
X2184400Y-1663700D01*
X2247900Y-1600200D01*
X2743200Y-1600200D01*
X2786202Y-1557197D01*
X3162300Y-1557197D01*
X943683Y-3349017D02*
G01*
X2053719Y-3349017D01*
X2460017Y-3755316D01*
X889000Y-4229100D02*
G01*
X943683Y-4174416D01*
X943683Y-3349017D01*
X381000Y-4229100D02*
G01*
X444500Y-4165600D01*
X444500Y-3630599D01*
X444500Y-3630599D02*
G01*
X569216Y-3755316D01*
X723541Y-3755316D01*
X419100Y-3033699D02*
G01*
X734418Y-3349017D01*
X943683Y-3349017D01*
X457200Y-2489200D02*
G01*
X419100Y-2527300D01*
X419100Y-2833700D01*
X1181100Y-984402D02*
G01*
X1124102Y-1041400D01*
X1016000Y-1041400D01*
X1778000Y-901700D02*
G01*
X1828800Y-850900D01*
X2016759Y-850900D01*
X1412239Y-1231900D02*
G01*
X1549400Y-1231900D01*
X1625600Y-1155700D01*
X1412239Y-1104900D02*
G01*
X1399539Y-1117600D01*
X939800Y-1117600D01*
X889000Y-1168400D01*
X889000Y-1422400D01*
X965200Y-1422400D01*
X1117600Y-1574800D01*
X1117600Y-2044700D01*
X1571609Y-2498709D01*
X1571609Y-2601516D01*
X1181100Y-984402D02*
G01*
X1187602Y-977900D01*
X1412239Y-977900D01*
X861999Y-939800D02*
G01*
X1128699Y-673100D01*
X1206500Y-673100D01*
X1295400Y-584200D01*
X1295400Y-355600D01*
X1225809Y-286009D01*
X1180404Y-286009D01*
X2016757Y-1231900D02*
G01*
X1877057Y-1371600D01*
X1270000Y-1371600D01*
X1174902Y-1276502D01*
X1174902Y-1257300D01*
X2016759Y-1104900D02*
G01*
X2120900Y-1104900D01*
X2171700Y-1155700D01*
X2171700Y-1447800D01*
X2260600Y-1536700D01*
X2576575Y-1536700D01*
X2794000Y-1319276D01*
X2298700Y-1274902D02*
G01*
X2298700Y-1422400D01*
X2016759Y-1104900D02*
G01*
X1765300Y-1104900D01*
X1638300Y-977900D01*
X1412239Y-977900D01*
X2552700Y-1274902D02*
G01*
X2708402Y-1119200D01*
X2794000Y-1119200D01*
X3162300Y-1557197D02*
G01*
X3441700Y-1557197D01*
D11*
X1180404Y-476001D02*
G01*
X1084905Y-571500D01*
X609600Y-571500D01*
X482600Y-444500D01*
X482600Y-330200D01*
X2705100Y-330200D02*
G01*
X2794000Y-419100D01*
X2794000Y-738200D01*
X2016759Y-850900D02*
G01*
X2129459Y-738200D01*
X2794000Y-738200D01*
X1866900Y-330200D02*
G01*
X1816094Y-381005D01*
X1410401Y-381005D01*
X2016759Y-850900D02*
G01*
X1866900Y-701039D01*
X1866900Y-330200D01*
D10*
X2298700Y-934897D02*
G01*
X2255697Y-977900D01*
X2016759Y-977900D01*
X2552700Y-934897D02*
G01*
X2298700Y-934897D01*
X2794000Y-938199D02*
G01*
X2790697Y-934897D01*
X2552700Y-934897D01*
X2959100Y-330200D02*
G01*
X3162300Y-533400D01*
X3162300Y-1557197D01*
X2866316Y-2238982D02*
G01*
X3099920Y-2238982D01*
X3441700Y-1897202D01*
X2460015Y-1832683D02*
G01*
X2524533Y-1897202D01*
X3162300Y-1897202D01*
X647700Y-1557195D02*
G01*
X368302Y-1557195D01*
X368300Y-1557197D01*
D12*
G01*
X368300Y-1897202D03*
G01*
X368300Y-1557197D03*
G01*
X2298700Y-1274902D03*
G01*
X2298700Y-934897D03*
G01*
X2552700Y-934897D03*
G01*
X2552700Y-1274902D03*
D13*
G01*
X2794000Y-938204D03*
D14*
G01*
X2794000Y-738200D03*
D13*
G01*
X2794000Y-1119195D03*
D14*
G01*
X2794000Y-1319199D03*
D13*
G01*
X419100Y-2833695D03*
D14*
G01*
X419100Y-3033699D03*
D13*
G01*
X444500Y-3430595D03*
D14*
G01*
X444500Y-3630599D03*
D15*
G01*
X1181100Y-844397D03*
G01*
X1181100Y-984402D03*
D16*
G01*
X1034897Y-1257300D03*
G01*
X1174902Y-1257300D03*
D12*
G01*
X3441700Y-1897202D03*
G01*
X3441700Y-1557197D03*
G01*
X647700Y-1897202D03*
G01*
X647700Y-1557197D03*
G01*
X3162300Y-1897202D03*
G01*
X3162300Y-1557197D03*
D17*
G01*
X1180404Y-476001D03*
G01*
X1410401Y-381005D03*
G01*
X1180404Y-286009D03*
D18*
G01*
X862004Y-939800D03*
G01*
X661995Y-939800D03*
D19*
G01*
X1412239Y-850900D03*
G01*
X1412239Y-977900D03*
G01*
X1412239Y-1104900D03*
G01*
X1412239Y-1231900D03*
G01*
X2016759Y-850900D03*
G01*
X2016759Y-977900D03*
G01*
X2016759Y-1104900D03*
G01*
X2016759Y-1231900D03*
D20*
G01*
X2120900Y-330200D03*
D21*
G01*
X1866900Y-330200D03*
D20*
G01*
X736600Y-330200D03*
D21*
G01*
X482600Y-330200D03*
D22*
G01*
X2705100Y-330200D03*
G01*
X2959100Y-330200D03*
D23*
G01*
X3213100Y-330200D03*
D24*
G01*
X1571609Y-2601516D03*
D25*
G01*
X794966Y-2793998D03*
D24*
G01*
X943683Y-2238984D03*
G01*
X2238390Y-2986483D03*
G01*
X1349982Y-1832683D03*
G01*
X1905002Y-1683966D03*
G01*
X2460015Y-1832683D03*
G01*
X2866316Y-2238982D03*
G01*
X3015033Y-2794002D03*
G01*
X2866316Y-3349015D03*
G01*
X2460017Y-3755316D03*
G01*
X1904997Y-3904033D03*
G01*
X1349984Y-3755316D03*
G01*
X943683Y-3349017D03*
D22*
G01*
X889000Y-4229100D03*
G01*
X635000Y-4229100D03*
D23*
G01*
X381000Y-4229100D03*
D26*
G01*
X2298700Y-1422400D03*
G01*
X948143Y-1557197D03*
G01*
X1625600Y-1155700D03*
G01*
X1778000Y-901700D03*
G01*
X1031179Y-1041400D03*
G01*
X457200Y-2489200D03*
G01*
X723541Y-3755316D03*
G01*
X1155700Y-1435100D03*
G01*
X1346200Y-736600D03*
M02*
