M48
METRIC,LZ,000.000
;FILE_FORMAT=3:3
;TYPE=PLATED
;Layer: PTH_Through
;EasyEDA v6.5.15, 2023-01-26 07:11:18
;bc408e8c05344163a153380a18e2a67f,cd9332c1ef044f0797b2d1e08cb7fb93,10
;Gerber Generator version 0.2
;Holesize 1 = 0.305 mm
T01C0.305
;Holesize 2 = 0.889 mm
T02C0.889
;Holesize 3 = 1.101 mm
T03C1.101
;Holesize 4 = 1.501 mm
T04C1.501
%
G05
G90
T01
X022987Y-014224
X009481Y-015572
X016256Y-011557
X017780Y-009017
X010312Y-010414
X004572Y-024892
X007235Y-037553
X011557Y-014351
X013462Y-007366
T02
X027051Y-003302
X029591Y-003302
X032131Y-003302
X008890Y-042291
X006350Y-042291
X003810Y-042291
T03
X021209Y-003302
X018669Y-003302
X007366Y-003302
X004826Y-003302
T04
X015716Y-026015G85X015716Y-026015
X007950Y-027940G85X007950Y-027940
X009437Y-022390G85X009437Y-022390
X022384Y-029865G85X022384Y-029865
X013500Y-018327G85X013500Y-018327
X019050Y-016840G85X019050Y-016840
X024600Y-018327G85X024600Y-018327
X028663Y-022390G85X028663Y-022390
X030150Y-027940G85X030150Y-027940
X028663Y-033490G85X028663Y-033490
X024600Y-037553G85X024600Y-037553
X019050Y-039040G85X019050Y-039040
X013500Y-037553G85X013500Y-037553
X009437Y-033490G85X009437Y-033490
M30
