G04 Layer: BottomLayer*
G04 EasyEDA v6.5.15, 2023-01-26 07:11:18*
G04 bc408e8c05344163a153380a18e2a67f,cd9332c1ef044f0797b2d1e08cb7fb93,10*
G04 Gerber Generator version 0.2*
G04 Scale: 100 percent, Rotated: No, Reflected: No *
G04 Dimensions in millimeters *
G04 leading zeros omitted , absolute positions ,4 integer and 5 decimal *
%FSLAX45Y45*%
%MOMM*%

%AMMACRO1*21,1,$1,$2,0,0,$3*%
%ADD10C,0.2540*%
%ADD11R,1.7000X1.5748*%
%ADD12C,1.7000*%
%ADD13C,1.5748*%
%ADD14R,1.5748X1.5748*%
%ADD15C,2.8001*%
%ADD16MACRO1,2.8001X2.8001X15.0005*%
%ADD17C,0.6110*%
%ADD18C,0.0197*%

%LPD*%
G36*
X150368Y-4457192D02*
G01*
X146456Y-4456430D01*
X143205Y-4454194D01*
X140970Y-4450943D01*
X140208Y-4447032D01*
X140208Y-163068D01*
X140970Y-159156D01*
X143205Y-155905D01*
X146456Y-153670D01*
X150368Y-152908D01*
X3659632Y-152908D01*
X3663543Y-153670D01*
X3666794Y-155905D01*
X3669029Y-159156D01*
X3669792Y-163068D01*
X3669792Y-3271723D01*
X3669334Y-3274771D01*
X3668014Y-3277514D01*
X3665880Y-3279749D01*
X2165502Y-4455007D01*
X2162556Y-4456633D01*
X2159254Y-4457192D01*
G37*

%LPC*%
G36*
X2169769Y-284480D02*
G01*
X2231796Y-284480D01*
X2231796Y-252018D01*
X2231085Y-245719D01*
X2229205Y-240233D01*
X2226106Y-235356D01*
X2221992Y-231241D01*
X2217115Y-228193D01*
X2211628Y-226263D01*
X2205329Y-225552D01*
X2169769Y-225552D01*
G37*
G36*
X302818Y-4333748D02*
G01*
X459181Y-4333748D01*
X465480Y-4333036D01*
X470966Y-4331106D01*
X475843Y-4328058D01*
X479958Y-4323943D01*
X483006Y-4319066D01*
X484936Y-4313580D01*
X485648Y-4307281D01*
X485648Y-4150918D01*
X484936Y-4144619D01*
X483006Y-4139133D01*
X479958Y-4134256D01*
X475843Y-4130141D01*
X470966Y-4127093D01*
X465480Y-4125163D01*
X459181Y-4124451D01*
X302818Y-4124451D01*
X296519Y-4125163D01*
X291033Y-4127093D01*
X286156Y-4130141D01*
X282041Y-4134256D01*
X278993Y-4139133D01*
X277063Y-4144619D01*
X276352Y-4150918D01*
X276352Y-4307281D01*
X277063Y-4313580D01*
X278993Y-4319066D01*
X282041Y-4323943D01*
X286156Y-4328058D01*
X291033Y-4331106D01*
X296519Y-4333036D01*
G37*
G36*
X635000Y-4333748D02*
G01*
X648665Y-4332833D01*
X662076Y-4330141D01*
X675030Y-4325772D01*
X687324Y-4319727D01*
X698703Y-4312107D01*
X708964Y-4303064D01*
X718007Y-4292803D01*
X725627Y-4281424D01*
X731672Y-4269130D01*
X736041Y-4256176D01*
X738733Y-4242765D01*
X739648Y-4229100D01*
X738733Y-4215434D01*
X736041Y-4202023D01*
X731672Y-4189069D01*
X729996Y-4185716D01*
X728980Y-4181703D01*
X729640Y-4177537D01*
X731926Y-4174032D01*
X851204Y-4054805D01*
X854506Y-4052570D01*
X858418Y-4051808D01*
X1795322Y-4051808D01*
X1803349Y-4050995D01*
X1810562Y-4048810D01*
X1812645Y-4047744D01*
X1815998Y-4046626D01*
X1819554Y-4046728D01*
X1839823Y-4056583D01*
X1856384Y-4062679D01*
X1873554Y-4066946D01*
X1891030Y-4069334D01*
X1908657Y-4069892D01*
X1926285Y-4068572D01*
X1943658Y-4065371D01*
X1960575Y-4060342D01*
X1976882Y-4053535D01*
X1992375Y-4045051D01*
X2006854Y-4034993D01*
X2020214Y-4023410D01*
X2032254Y-4010507D01*
X2042820Y-3996334D01*
X2051862Y-3981196D01*
X2059228Y-3965143D01*
X2064867Y-3948379D01*
X2068677Y-3931158D01*
X2070607Y-3913581D01*
X2070709Y-3895953D01*
X2068880Y-3878376D01*
X2065223Y-3861104D01*
X2059787Y-3844290D01*
X2052523Y-3828186D01*
X2043633Y-3812946D01*
X2033168Y-3798722D01*
X2021281Y-3785666D01*
X2008022Y-3773982D01*
X1993595Y-3763772D01*
X1978202Y-3755186D01*
X1961946Y-3748227D01*
X1945081Y-3743045D01*
X1927758Y-3739692D01*
X1910130Y-3738219D01*
X1892503Y-3738626D01*
X1874977Y-3740861D01*
X1857806Y-3744976D01*
X1841195Y-3750919D01*
X1825243Y-3758539D01*
X1810257Y-3767836D01*
X1796288Y-3778707D01*
X1783588Y-3790950D01*
X1772259Y-3804513D01*
X1762455Y-3819194D01*
X1754225Y-3834790D01*
X1747723Y-3851249D01*
X1742998Y-3868267D01*
X1740103Y-3885692D01*
X1739087Y-3903319D01*
X1739950Y-3920947D01*
X1742693Y-3938371D01*
X1747266Y-3955440D01*
X1749348Y-3960774D01*
X1750009Y-3964635D01*
X1749196Y-3968445D01*
X1746961Y-3971696D01*
X1743710Y-3973829D01*
X1739849Y-3974592D01*
X838708Y-3974592D01*
X830681Y-3975404D01*
X823468Y-3977589D01*
X816762Y-3981145D01*
X810564Y-3986276D01*
X671474Y-4125315D01*
X668782Y-4127246D01*
X665632Y-4128211D01*
X662330Y-4128109D01*
X648665Y-4125366D01*
X635000Y-4124451D01*
X621334Y-4125366D01*
X607923Y-4128058D01*
X594969Y-4132427D01*
X582676Y-4138472D01*
X571296Y-4146092D01*
X561035Y-4155135D01*
X551992Y-4165396D01*
X544372Y-4176776D01*
X538327Y-4189069D01*
X533958Y-4202023D01*
X531266Y-4215434D01*
X530352Y-4229100D01*
X531266Y-4242765D01*
X533958Y-4256176D01*
X538327Y-4269130D01*
X544372Y-4281424D01*
X551992Y-4292803D01*
X561035Y-4303064D01*
X571296Y-4312107D01*
X582676Y-4319727D01*
X594969Y-4325772D01*
X607923Y-4330141D01*
X621334Y-4332833D01*
G37*
G36*
X2010003Y-284480D02*
G01*
X2072030Y-284480D01*
X2072030Y-225552D01*
X2036470Y-225552D01*
X2030171Y-226263D01*
X2024684Y-228193D01*
X2019807Y-231241D01*
X2015693Y-235356D01*
X2012594Y-240233D01*
X2010714Y-245719D01*
X2010003Y-252018D01*
G37*
G36*
X785469Y-284480D02*
G01*
X847496Y-284480D01*
X847496Y-252018D01*
X846785Y-245719D01*
X844905Y-240233D01*
X841806Y-235356D01*
X837692Y-231241D01*
X832815Y-228193D01*
X827328Y-226263D01*
X821029Y-225552D01*
X785469Y-225552D01*
G37*
G36*
X2463698Y-3921150D02*
G01*
X2481326Y-3919829D01*
X2498699Y-3916629D01*
X2515616Y-3911650D01*
X2531922Y-3904843D01*
X2547366Y-3896360D01*
X2561894Y-3886250D01*
X2575204Y-3874668D01*
X2587244Y-3861765D01*
X2597861Y-3847642D01*
X2606903Y-3832453D01*
X2614269Y-3816400D01*
X2619857Y-3799687D01*
X2623667Y-3782415D01*
X2625648Y-3764889D01*
X2625699Y-3747211D01*
X2623921Y-3729634D01*
X2620264Y-3712362D01*
X2614777Y-3695598D01*
X2607564Y-3679494D01*
X2598674Y-3664204D01*
X2588209Y-3649979D01*
X2576271Y-3636975D01*
X2563063Y-3625291D01*
X2548636Y-3615080D01*
X2533243Y-3606444D01*
X2516987Y-3599484D01*
X2500122Y-3594354D01*
X2482748Y-3591001D01*
X2465171Y-3589477D01*
X2447493Y-3589883D01*
X2430018Y-3592169D01*
X2412847Y-3596284D01*
X2396185Y-3602177D01*
X2380284Y-3609848D01*
X2365248Y-3619144D01*
X2351328Y-3629964D01*
X2338628Y-3642258D01*
X2327300Y-3655771D01*
X2317445Y-3670452D01*
X2309266Y-3686098D01*
X2302764Y-3702507D01*
X2298039Y-3719525D01*
X2295144Y-3736949D01*
X2294128Y-3754577D01*
X2294991Y-3772204D01*
X2297734Y-3789679D01*
X2302306Y-3806698D01*
X2308656Y-3823208D01*
X2316734Y-3838905D01*
X2326436Y-3853637D01*
X2337612Y-3867302D01*
X2350211Y-3879697D01*
X2364079Y-3890670D01*
X2378964Y-3900068D01*
X2394813Y-3907891D01*
X2411425Y-3913936D01*
X2428544Y-3918204D01*
X2446070Y-3920642D01*
G37*
G36*
X1353667Y-3921150D02*
G01*
X1371295Y-3919829D01*
X1388618Y-3916629D01*
X1405585Y-3911600D01*
X1421892Y-3904843D01*
X1437335Y-3896360D01*
X1451864Y-3886250D01*
X1465173Y-3874668D01*
X1477213Y-3861765D01*
X1487830Y-3847642D01*
X1496872Y-3832453D01*
X1504238Y-3816400D01*
X1509826Y-3799687D01*
X1513636Y-3782415D01*
X1515618Y-3764889D01*
X1515668Y-3747211D01*
X1513890Y-3729634D01*
X1510233Y-3712362D01*
X1504746Y-3695598D01*
X1497533Y-3679494D01*
X1495196Y-3675430D01*
X1493824Y-3671214D01*
X1494383Y-3666845D01*
X1496771Y-3663137D01*
X1769313Y-3390595D01*
X1772615Y-3388410D01*
X1776475Y-3387648D01*
X2697378Y-3387648D01*
X2701645Y-3388563D01*
X2705150Y-3391255D01*
X2707182Y-3395167D01*
X2708605Y-3400399D01*
X2714955Y-3416909D01*
X2723032Y-3432606D01*
X2732684Y-3447338D01*
X2743911Y-3461004D01*
X2756509Y-3473399D01*
X2770378Y-3484321D01*
X2785262Y-3493770D01*
X2801112Y-3501593D01*
X2817723Y-3507638D01*
X2834843Y-3511905D01*
X2852369Y-3514344D01*
X2869996Y-3514851D01*
X2887624Y-3513531D01*
X2904947Y-3510330D01*
X2921914Y-3505301D01*
X2938221Y-3498545D01*
X2953664Y-3490061D01*
X2968193Y-3479952D01*
X2981502Y-3468370D01*
X2993542Y-3455466D01*
X3004159Y-3441344D01*
X3013202Y-3426155D01*
X3020568Y-3410102D01*
X3026156Y-3393389D01*
X3029966Y-3376117D01*
X3031947Y-3358591D01*
X3031998Y-3340912D01*
X3030220Y-3323336D01*
X3026562Y-3306064D01*
X3021076Y-3289300D01*
X3013862Y-3273196D01*
X3004972Y-3257905D01*
X2994507Y-3243681D01*
X2982569Y-3230676D01*
X2969361Y-3218992D01*
X2954934Y-3208782D01*
X2939542Y-3200146D01*
X2923286Y-3193186D01*
X2906420Y-3188055D01*
X2889046Y-3184702D01*
X2871470Y-3183178D01*
X2853791Y-3183585D01*
X2836316Y-3185871D01*
X2819146Y-3189986D01*
X2802483Y-3195878D01*
X2786583Y-3203549D01*
X2771546Y-3212846D01*
X2757627Y-3223666D01*
X2744927Y-3235960D01*
X2733598Y-3249472D01*
X2723743Y-3264153D01*
X2715564Y-3279800D01*
X2709062Y-3296208D01*
X2707182Y-3302965D01*
X2705100Y-3306826D01*
X2701645Y-3309467D01*
X2697378Y-3310432D01*
X1756765Y-3310432D01*
X1748739Y-3311194D01*
X1741525Y-3313379D01*
X1734870Y-3316935D01*
X1728622Y-3322065D01*
X1442110Y-3608578D01*
X1438452Y-3610914D01*
X1434134Y-3611524D01*
X1429969Y-3610254D01*
X1423212Y-3606444D01*
X1406956Y-3599484D01*
X1390091Y-3594354D01*
X1372717Y-3591001D01*
X1355140Y-3589477D01*
X1337462Y-3589883D01*
X1319987Y-3592169D01*
X1302816Y-3596284D01*
X1286154Y-3602177D01*
X1270254Y-3609848D01*
X1255217Y-3619144D01*
X1241298Y-3629964D01*
X1228598Y-3642258D01*
X1217269Y-3655771D01*
X1207414Y-3670452D01*
X1199235Y-3686098D01*
X1192733Y-3702507D01*
X1190853Y-3709263D01*
X1188770Y-3713124D01*
X1185316Y-3715765D01*
X1181049Y-3716731D01*
X768553Y-3716731D01*
X764641Y-3715918D01*
X761339Y-3713734D01*
X759764Y-3712159D01*
X751738Y-3706520D01*
X742797Y-3702354D01*
X733348Y-3699814D01*
X723544Y-3698951D01*
X713740Y-3699814D01*
X704291Y-3702354D01*
X695350Y-3706520D01*
X687324Y-3712159D01*
X680364Y-3719118D01*
X674725Y-3727145D01*
X670610Y-3736035D01*
X668070Y-3745534D01*
X667207Y-3755339D01*
X668070Y-3765092D01*
X670610Y-3774592D01*
X674725Y-3783482D01*
X680364Y-3791559D01*
X687324Y-3798468D01*
X695350Y-3804107D01*
X704291Y-3808272D01*
X713740Y-3810812D01*
X723544Y-3811676D01*
X733348Y-3810812D01*
X742797Y-3808272D01*
X751738Y-3804107D01*
X759764Y-3798468D01*
X761339Y-3796893D01*
X764641Y-3794709D01*
X768553Y-3793947D01*
X1181049Y-3793947D01*
X1185316Y-3794861D01*
X1188821Y-3797554D01*
X1190853Y-3801465D01*
X1192276Y-3806698D01*
X1198626Y-3823208D01*
X1206703Y-3838905D01*
X1216355Y-3853637D01*
X1227582Y-3867302D01*
X1240180Y-3879697D01*
X1254048Y-3890670D01*
X1268933Y-3900068D01*
X1284782Y-3907891D01*
X1301394Y-3913936D01*
X1318514Y-3918204D01*
X1336040Y-3920642D01*
G37*
G36*
X625703Y-284480D02*
G01*
X687730Y-284480D01*
X687730Y-225552D01*
X652170Y-225552D01*
X645871Y-226263D01*
X640384Y-228193D01*
X635508Y-231241D01*
X631393Y-235356D01*
X628294Y-240233D01*
X626414Y-245719D01*
X625703Y-252018D01*
G37*
G36*
X3108452Y-284480D02*
G01*
X3167380Y-284480D01*
X3167380Y-225552D01*
X3134918Y-225552D01*
X3128619Y-226263D01*
X3123133Y-228193D01*
X3118256Y-231241D01*
X3114141Y-235356D01*
X3111093Y-240233D01*
X3109163Y-245719D01*
X3108452Y-252018D01*
G37*
G36*
X3258820Y-284480D02*
G01*
X3317748Y-284480D01*
X3317748Y-252018D01*
X3317036Y-245719D01*
X3315106Y-240233D01*
X3312058Y-235356D01*
X3307943Y-231241D01*
X3303066Y-228193D01*
X3297580Y-226263D01*
X3291281Y-225552D01*
X3258820Y-225552D01*
G37*
G36*
X947369Y-3514851D02*
G01*
X964996Y-3513531D01*
X982319Y-3510330D01*
X999286Y-3505301D01*
X1015593Y-3498545D01*
X1031036Y-3490061D01*
X1045565Y-3479952D01*
X1058875Y-3468370D01*
X1070914Y-3455466D01*
X1081532Y-3441344D01*
X1090574Y-3426155D01*
X1097940Y-3410102D01*
X1103528Y-3393389D01*
X1107338Y-3376117D01*
X1109319Y-3358591D01*
X1109370Y-3340912D01*
X1107592Y-3323336D01*
X1103934Y-3306064D01*
X1098448Y-3289300D01*
X1091234Y-3273196D01*
X1082344Y-3257905D01*
X1071880Y-3243681D01*
X1059942Y-3230676D01*
X1046683Y-3218992D01*
X1032306Y-3208782D01*
X1016914Y-3200146D01*
X1000658Y-3193186D01*
X983792Y-3188055D01*
X966419Y-3184702D01*
X948842Y-3183178D01*
X931164Y-3183585D01*
X913688Y-3185871D01*
X896518Y-3189986D01*
X879856Y-3195878D01*
X863955Y-3203549D01*
X848918Y-3212846D01*
X834999Y-3223666D01*
X822299Y-3235960D01*
X810971Y-3249472D01*
X801116Y-3264153D01*
X792937Y-3279800D01*
X786434Y-3296208D01*
X781710Y-3313226D01*
X778814Y-3330651D01*
X777798Y-3348278D01*
X778662Y-3365906D01*
X781354Y-3383381D01*
X785926Y-3400399D01*
X792327Y-3416909D01*
X800404Y-3432606D01*
X810056Y-3447338D01*
X821283Y-3461004D01*
X833882Y-3473399D01*
X847750Y-3484372D01*
X862634Y-3493770D01*
X878484Y-3501593D01*
X895096Y-3507638D01*
X912215Y-3511905D01*
X929690Y-3514344D01*
G37*
G36*
X2959100Y-434848D02*
G01*
X2972765Y-433933D01*
X2986176Y-431241D01*
X2999130Y-426872D01*
X3011424Y-420827D01*
X3022803Y-413207D01*
X3033064Y-404164D01*
X3042107Y-393903D01*
X3049727Y-382524D01*
X3055772Y-370230D01*
X3060141Y-357276D01*
X3062833Y-343865D01*
X3063748Y-330200D01*
X3062833Y-316534D01*
X3060141Y-303123D01*
X3055772Y-290169D01*
X3049727Y-277876D01*
X3042107Y-266496D01*
X3033064Y-256235D01*
X3022803Y-247192D01*
X3011424Y-239572D01*
X2999130Y-233527D01*
X2986176Y-229158D01*
X2972765Y-226466D01*
X2959100Y-225552D01*
X2945434Y-226466D01*
X2932023Y-229158D01*
X2919069Y-233527D01*
X2906776Y-239572D01*
X2895396Y-247192D01*
X2885135Y-256235D01*
X2876092Y-266496D01*
X2868472Y-277876D01*
X2862427Y-290169D01*
X2858058Y-303123D01*
X2855366Y-316534D01*
X2854452Y-330200D01*
X2855366Y-343865D01*
X2858058Y-357276D01*
X2862427Y-370230D01*
X2868472Y-382524D01*
X2876092Y-393903D01*
X2885135Y-404164D01*
X2895396Y-413207D01*
X2906776Y-420827D01*
X2919069Y-426872D01*
X2932023Y-431241D01*
X2945434Y-433933D01*
G37*
G36*
X2242058Y-3152343D02*
G01*
X2259685Y-3151022D01*
X2277059Y-3147822D01*
X2293975Y-3142792D01*
X2310282Y-3135985D01*
X2325776Y-3127502D01*
X2340254Y-3117443D01*
X2353614Y-3105861D01*
X2365654Y-3092907D01*
X2376220Y-3078784D01*
X2385263Y-3063646D01*
X2392629Y-3047593D01*
X2398268Y-3030829D01*
X2402078Y-3013608D01*
X2404008Y-2996031D01*
X2404110Y-2978404D01*
X2402281Y-2960827D01*
X2398623Y-2943555D01*
X2393188Y-2926740D01*
X2385923Y-2910636D01*
X2377033Y-2895396D01*
X2366568Y-2881172D01*
X2354630Y-2868117D01*
X2341422Y-2856433D01*
X2326995Y-2846222D01*
X2311603Y-2837586D01*
X2295347Y-2830677D01*
X2284171Y-2827223D01*
X2280462Y-2825140D01*
X2277922Y-2821736D01*
X2277008Y-2817520D01*
X2277008Y-1865325D01*
X2277922Y-1861108D01*
X2280462Y-1857654D01*
X2284222Y-1855571D01*
X2288540Y-1855266D01*
X2292553Y-1856689D01*
X2295652Y-1859737D01*
X2297176Y-1863750D01*
X2297734Y-1867052D01*
X2302306Y-1884070D01*
X2308656Y-1900580D01*
X2316734Y-1916277D01*
X2326386Y-1931009D01*
X2337612Y-1944674D01*
X2350211Y-1957070D01*
X2364079Y-1967992D01*
X2378964Y-1977440D01*
X2394813Y-1985264D01*
X2411425Y-1991309D01*
X2428544Y-1995576D01*
X2446070Y-1998014D01*
X2463698Y-1998522D01*
X2481326Y-1997202D01*
X2498648Y-1994001D01*
X2515616Y-1988972D01*
X2531922Y-1982216D01*
X2547366Y-1973732D01*
X2561894Y-1963623D01*
X2575204Y-1952040D01*
X2587244Y-1939137D01*
X2597861Y-1925015D01*
X2606903Y-1909825D01*
X2614269Y-1893773D01*
X2619857Y-1877060D01*
X2623667Y-1859788D01*
X2625648Y-1842262D01*
X2625699Y-1824583D01*
X2623921Y-1807006D01*
X2620264Y-1789734D01*
X2614777Y-1772970D01*
X2607564Y-1756867D01*
X2598674Y-1741576D01*
X2588209Y-1727352D01*
X2576271Y-1714347D01*
X2563063Y-1702663D01*
X2548636Y-1692452D01*
X2533243Y-1683816D01*
X2516987Y-1676857D01*
X2500122Y-1671726D01*
X2482748Y-1668373D01*
X2465171Y-1666849D01*
X2447493Y-1667256D01*
X2430018Y-1669542D01*
X2412847Y-1673656D01*
X2396185Y-1679549D01*
X2380284Y-1687220D01*
X2365248Y-1696516D01*
X2351328Y-1707337D01*
X2338628Y-1719630D01*
X2327300Y-1733143D01*
X2317445Y-1747824D01*
X2309266Y-1763471D01*
X2302764Y-1779879D01*
X2298039Y-1796897D01*
X2297176Y-1801977D01*
X2295601Y-1805939D01*
X2292502Y-1808937D01*
X2288489Y-1810410D01*
X2284222Y-1810054D01*
X2280462Y-1807972D01*
X2277922Y-1804517D01*
X2277008Y-1800301D01*
X2277008Y-1502918D01*
X2277770Y-1499006D01*
X2279954Y-1495704D01*
X2294178Y-1481531D01*
X2297074Y-1479499D01*
X2300478Y-1478584D01*
X2308504Y-1477873D01*
X2317953Y-1475333D01*
X2326894Y-1471218D01*
X2334920Y-1465580D01*
X2341880Y-1458620D01*
X2347518Y-1450594D01*
X2351633Y-1441653D01*
X2354173Y-1432204D01*
X2355037Y-1422400D01*
X2354173Y-1412595D01*
X2351633Y-1403146D01*
X2347518Y-1394206D01*
X2341880Y-1386179D01*
X2334920Y-1379220D01*
X2326894Y-1373581D01*
X2317953Y-1369466D01*
X2308504Y-1366926D01*
X2298700Y-1366062D01*
X2288895Y-1366926D01*
X2279446Y-1369466D01*
X2270506Y-1373581D01*
X2262479Y-1379220D01*
X2255520Y-1386179D01*
X2249881Y-1394206D01*
X2245766Y-1403146D01*
X2243226Y-1412595D01*
X2242515Y-1420622D01*
X2241600Y-1424025D01*
X2239568Y-1426921D01*
X2211425Y-1455064D01*
X2206345Y-1461312D01*
X2202789Y-1467967D01*
X2200554Y-1475181D01*
X2199792Y-1483207D01*
X2199792Y-2817368D01*
X2198776Y-2821736D01*
X2196033Y-2825242D01*
X2191207Y-2827426D01*
X2174544Y-2833370D01*
X2158644Y-2840990D01*
X2143658Y-2850286D01*
X2129688Y-2861157D01*
X2116988Y-2873400D01*
X2105660Y-2886964D01*
X2095855Y-2901645D01*
X2087625Y-2917240D01*
X2081123Y-2933700D01*
X2076399Y-2950718D01*
X2073503Y-2968091D01*
X2072487Y-2985770D01*
X2073351Y-3003397D01*
X2076094Y-3020822D01*
X2080666Y-3037890D01*
X2087016Y-3054350D01*
X2095093Y-3070047D01*
X2104796Y-3084830D01*
X2115972Y-3098495D01*
X2128570Y-3110839D01*
X2142439Y-3121812D01*
X2157374Y-3131261D01*
X2173224Y-3139033D01*
X2189784Y-3145078D01*
X2206904Y-3149346D01*
X2224430Y-3151784D01*
G37*
G36*
X696925Y-2991307D02*
G01*
X703224Y-2990342D01*
X972566Y-2918155D01*
X978509Y-2915869D01*
X983284Y-2912567D01*
X987247Y-2908350D01*
X990142Y-2903321D01*
X991819Y-2897784D01*
X992276Y-2892044D01*
X991311Y-2885744D01*
X919124Y-2616352D01*
X916838Y-2610459D01*
X913536Y-2605684D01*
X909319Y-2601722D01*
X904290Y-2598826D01*
X898753Y-2597150D01*
X893013Y-2596692D01*
X886714Y-2597658D01*
X617321Y-2669844D01*
X611428Y-2672130D01*
X606653Y-2675432D01*
X602691Y-2679649D01*
X599795Y-2684678D01*
X598119Y-2690215D01*
X597662Y-2695956D01*
X598627Y-2702255D01*
X670814Y-2971647D01*
X673100Y-2977540D01*
X676402Y-2982315D01*
X680618Y-2986278D01*
X685647Y-2989173D01*
X691184Y-2990850D01*
G37*
G36*
X3018688Y-2959862D02*
G01*
X3036316Y-2958541D01*
X3053689Y-2955340D01*
X3070606Y-2950311D01*
X3086912Y-2943504D01*
X3102406Y-2935020D01*
X3116884Y-2924962D01*
X3130245Y-2913380D01*
X3142284Y-2900426D01*
X3152851Y-2886303D01*
X3161893Y-2871165D01*
X3169259Y-2855112D01*
X3174898Y-2838348D01*
X3178708Y-2821127D01*
X3180638Y-2803550D01*
X3180740Y-2785922D01*
X3178911Y-2768346D01*
X3175254Y-2751074D01*
X3169818Y-2734259D01*
X3162604Y-2718155D01*
X3153664Y-2702915D01*
X3143199Y-2688691D01*
X3131312Y-2675636D01*
X3118053Y-2663952D01*
X3103676Y-2653741D01*
X3088233Y-2645105D01*
X3072028Y-2638196D01*
X3055112Y-2633014D01*
X3037789Y-2629662D01*
X3020161Y-2628188D01*
X3002534Y-2628595D01*
X2985008Y-2630830D01*
X2967837Y-2634945D01*
X2951226Y-2640888D01*
X2935274Y-2648508D01*
X2920288Y-2657805D01*
X2906318Y-2668676D01*
X2893618Y-2680919D01*
X2882290Y-2694482D01*
X2872486Y-2709164D01*
X2864256Y-2724759D01*
X2857754Y-2741218D01*
X2853029Y-2758236D01*
X2850134Y-2775610D01*
X2849118Y-2793288D01*
X2849981Y-2810916D01*
X2852724Y-2828340D01*
X2857296Y-2845409D01*
X2863646Y-2861868D01*
X2871724Y-2877566D01*
X2881426Y-2892348D01*
X2892653Y-2906014D01*
X2905252Y-2918358D01*
X2919069Y-2929331D01*
X2934004Y-2938780D01*
X2949854Y-2946552D01*
X2966415Y-2952597D01*
X2983585Y-2956864D01*
X3001060Y-2959303D01*
G37*
G36*
X1575308Y-2767380D02*
G01*
X1592884Y-2766060D01*
X1610258Y-2762859D01*
X1627174Y-2757830D01*
X1643481Y-2751023D01*
X1658975Y-2742539D01*
X1673453Y-2732481D01*
X1686814Y-2720898D01*
X1698853Y-2707944D01*
X1709470Y-2693822D01*
X1718462Y-2678684D01*
X1725828Y-2662631D01*
X1731467Y-2645867D01*
X1735277Y-2628646D01*
X1737207Y-2611069D01*
X1737309Y-2593441D01*
X1735531Y-2575864D01*
X1731873Y-2558592D01*
X1726387Y-2541778D01*
X1719173Y-2525674D01*
X1710283Y-2510434D01*
X1699768Y-2496210D01*
X1687880Y-2483154D01*
X1674622Y-2471470D01*
X1660245Y-2461260D01*
X1644802Y-2452624D01*
X1628597Y-2445715D01*
X1611680Y-2440533D01*
X1594358Y-2437180D01*
X1576781Y-2435707D01*
X1559102Y-2436114D01*
X1541576Y-2438349D01*
X1524406Y-2442464D01*
X1507794Y-2448407D01*
X1491843Y-2456027D01*
X1476857Y-2465324D01*
X1462938Y-2476195D01*
X1450187Y-2488438D01*
X1438859Y-2502001D01*
X1429054Y-2516682D01*
X1420825Y-2532278D01*
X1414322Y-2548737D01*
X1409598Y-2565755D01*
X1406753Y-2583129D01*
X1405737Y-2600756D01*
X1406550Y-2618435D01*
X1409293Y-2635859D01*
X1413865Y-2652928D01*
X1420215Y-2669387D01*
X1428292Y-2685084D01*
X1437995Y-2699867D01*
X1449222Y-2713482D01*
X1461820Y-2725877D01*
X1475638Y-2736850D01*
X1490573Y-2746298D01*
X1506423Y-2754071D01*
X1523034Y-2760116D01*
X1540154Y-2764383D01*
X1557629Y-2766822D01*
G37*
G36*
X457200Y-2545537D02*
G01*
X467004Y-2544673D01*
X476453Y-2542133D01*
X485393Y-2538018D01*
X493420Y-2532380D01*
X500380Y-2525420D01*
X506018Y-2517394D01*
X510133Y-2508453D01*
X512673Y-2499004D01*
X513537Y-2489200D01*
X512673Y-2479395D01*
X510133Y-2469946D01*
X506018Y-2461006D01*
X500380Y-2452979D01*
X498805Y-2451404D01*
X496570Y-2448102D01*
X495808Y-2444191D01*
X495808Y-2382418D01*
X496570Y-2378506D01*
X498805Y-2375204D01*
X852424Y-2021535D01*
X857554Y-2015337D01*
X861110Y-2008632D01*
X863295Y-2001418D01*
X864108Y-1993392D01*
X864108Y-1267256D01*
X864869Y-1263396D01*
X867105Y-1260094D01*
X1026668Y-1100531D01*
X1029512Y-1098499D01*
X1032967Y-1097584D01*
X1040942Y-1096873D01*
X1050442Y-1094333D01*
X1059332Y-1090218D01*
X1067409Y-1084580D01*
X1074369Y-1077620D01*
X1079957Y-1069594D01*
X1084122Y-1060653D01*
X1086662Y-1051204D01*
X1087526Y-1041400D01*
X1086662Y-1031595D01*
X1084122Y-1022146D01*
X1079957Y-1013206D01*
X1074369Y-1005179D01*
X1067409Y-998219D01*
X1059332Y-992581D01*
X1050442Y-988466D01*
X1040942Y-985926D01*
X1031189Y-985062D01*
X1021384Y-985926D01*
X1011885Y-988466D01*
X1002995Y-992581D01*
X994968Y-998219D01*
X988009Y-1005179D01*
X982370Y-1013206D01*
X978204Y-1022146D01*
X975664Y-1031595D01*
X975004Y-1039621D01*
X974090Y-1043025D01*
X972058Y-1045921D01*
X798576Y-1219403D01*
X793445Y-1225651D01*
X789889Y-1232306D01*
X787704Y-1239570D01*
X786892Y-1247597D01*
X786892Y-1973681D01*
X786130Y-1977593D01*
X783894Y-1980895D01*
X430276Y-2334564D01*
X425145Y-2340762D01*
X421589Y-2347468D01*
X419404Y-2354681D01*
X418592Y-2362708D01*
X418592Y-2444191D01*
X417830Y-2448102D01*
X415594Y-2451404D01*
X414020Y-2452979D01*
X408381Y-2461006D01*
X404266Y-2469946D01*
X401726Y-2479395D01*
X400862Y-2489200D01*
X401726Y-2499004D01*
X404266Y-2508453D01*
X408381Y-2517394D01*
X414020Y-2525420D01*
X420979Y-2532380D01*
X429006Y-2538018D01*
X437946Y-2542133D01*
X447395Y-2544673D01*
G37*
G36*
X2869996Y-2404821D02*
G01*
X2887624Y-2403500D01*
X2904998Y-2400300D01*
X2921914Y-2395270D01*
X2938221Y-2388514D01*
X2953664Y-2380030D01*
X2968193Y-2369921D01*
X2981502Y-2358339D01*
X2993542Y-2345436D01*
X3004159Y-2331313D01*
X3013202Y-2316124D01*
X3020568Y-2300071D01*
X3026156Y-2283358D01*
X3029966Y-2266086D01*
X3031947Y-2248560D01*
X3031998Y-2230882D01*
X3030220Y-2213305D01*
X3026562Y-2196033D01*
X3021076Y-2179269D01*
X3013862Y-2163165D01*
X3004972Y-2147874D01*
X2994507Y-2133650D01*
X2982569Y-2120646D01*
X2969361Y-2108962D01*
X2954934Y-2098751D01*
X2939542Y-2090115D01*
X2923286Y-2083155D01*
X2906420Y-2078024D01*
X2889046Y-2074672D01*
X2871470Y-2073148D01*
X2853791Y-2073554D01*
X2836316Y-2075840D01*
X2819146Y-2079955D01*
X2802483Y-2085848D01*
X2786583Y-2093518D01*
X2771546Y-2102815D01*
X2757627Y-2113635D01*
X2744927Y-2125929D01*
X2733598Y-2139442D01*
X2723743Y-2154123D01*
X2715564Y-2169769D01*
X2709062Y-2186178D01*
X2704338Y-2203196D01*
X2701442Y-2220620D01*
X2700426Y-2238248D01*
X2701290Y-2255875D01*
X2704033Y-2273350D01*
X2708605Y-2290368D01*
X2714955Y-2306878D01*
X2723032Y-2322576D01*
X2732735Y-2337308D01*
X2743911Y-2350973D01*
X2756509Y-2363368D01*
X2770378Y-2374290D01*
X2785262Y-2383739D01*
X2801112Y-2391562D01*
X2817723Y-2397607D01*
X2834843Y-2401874D01*
X2852369Y-2404313D01*
G37*
G36*
X947369Y-2404821D02*
G01*
X964996Y-2403500D01*
X982319Y-2400300D01*
X999286Y-2395270D01*
X1015593Y-2388514D01*
X1031036Y-2380030D01*
X1045565Y-2369921D01*
X1058875Y-2358339D01*
X1070914Y-2345436D01*
X1081532Y-2331313D01*
X1090574Y-2316124D01*
X1097940Y-2300071D01*
X1103528Y-2283358D01*
X1107338Y-2266086D01*
X1109319Y-2248560D01*
X1109370Y-2230882D01*
X1107592Y-2213305D01*
X1103934Y-2196033D01*
X1098448Y-2179269D01*
X1091234Y-2163165D01*
X1088898Y-2159101D01*
X1087526Y-2154885D01*
X1088085Y-2150516D01*
X1090472Y-2146808D01*
X1257706Y-1979574D01*
X1261211Y-1977288D01*
X1265326Y-1976628D01*
X1269339Y-1977643D01*
X1284782Y-1985264D01*
X1301394Y-1991309D01*
X1318514Y-1995576D01*
X1335989Y-1998014D01*
X1353667Y-1998522D01*
X1371295Y-1997202D01*
X1388618Y-1994001D01*
X1405585Y-1988972D01*
X1421892Y-1982216D01*
X1437335Y-1973732D01*
X1451864Y-1963623D01*
X1465173Y-1952040D01*
X1477213Y-1939137D01*
X1487830Y-1925015D01*
X1496872Y-1909825D01*
X1504238Y-1893773D01*
X1509826Y-1877060D01*
X1513636Y-1859788D01*
X1515618Y-1842262D01*
X1515668Y-1824583D01*
X1513890Y-1807006D01*
X1510233Y-1789734D01*
X1504746Y-1772970D01*
X1497533Y-1756867D01*
X1488643Y-1741576D01*
X1478178Y-1727352D01*
X1466240Y-1714347D01*
X1452981Y-1702663D01*
X1438605Y-1692452D01*
X1423212Y-1683816D01*
X1406956Y-1676857D01*
X1390091Y-1671675D01*
X1372717Y-1668373D01*
X1355140Y-1666849D01*
X1337462Y-1667256D01*
X1319987Y-1669542D01*
X1302816Y-1673656D01*
X1286154Y-1679549D01*
X1270254Y-1687220D01*
X1255217Y-1696516D01*
X1241298Y-1707337D01*
X1228598Y-1719630D01*
X1217269Y-1733143D01*
X1207414Y-1747824D01*
X1199235Y-1763471D01*
X1192733Y-1779879D01*
X1188008Y-1796897D01*
X1185113Y-1814322D01*
X1184097Y-1831949D01*
X1184960Y-1849577D01*
X1187653Y-1867052D01*
X1192225Y-1884070D01*
X1198626Y-1900580D01*
X1205026Y-1913077D01*
X1206144Y-1917141D01*
X1205484Y-1921357D01*
X1203198Y-1924913D01*
X1035812Y-2092248D01*
X1032154Y-2094585D01*
X1027836Y-2095195D01*
X1023670Y-2093925D01*
X1016914Y-2090115D01*
X1000658Y-2083155D01*
X983792Y-2078024D01*
X966419Y-2074672D01*
X948842Y-2073148D01*
X931164Y-2073554D01*
X913688Y-2075840D01*
X896518Y-2079955D01*
X879856Y-2085848D01*
X863955Y-2093518D01*
X848918Y-2102815D01*
X834999Y-2113635D01*
X822299Y-2125929D01*
X810971Y-2139442D01*
X801116Y-2154123D01*
X792937Y-2169769D01*
X786434Y-2186178D01*
X781710Y-2203196D01*
X778814Y-2220620D01*
X777798Y-2238248D01*
X778662Y-2255875D01*
X781405Y-2273350D01*
X785926Y-2290368D01*
X792327Y-2306878D01*
X800404Y-2322576D01*
X810056Y-2337308D01*
X821283Y-2350973D01*
X833882Y-2363368D01*
X847750Y-2374290D01*
X862634Y-2383739D01*
X878484Y-2391562D01*
X895096Y-2397607D01*
X912215Y-2401874D01*
X929690Y-2404313D01*
G37*
G36*
X2705100Y-434848D02*
G01*
X2718765Y-433933D01*
X2732176Y-431241D01*
X2745130Y-426872D01*
X2757424Y-420827D01*
X2768803Y-413207D01*
X2779064Y-404164D01*
X2788107Y-393903D01*
X2795727Y-382524D01*
X2801772Y-370230D01*
X2806141Y-357276D01*
X2808833Y-343865D01*
X2809748Y-330200D01*
X2808833Y-316534D01*
X2806141Y-303123D01*
X2801772Y-290169D01*
X2795727Y-277876D01*
X2788107Y-266496D01*
X2779064Y-256235D01*
X2768803Y-247192D01*
X2757424Y-239572D01*
X2745130Y-233527D01*
X2732176Y-229158D01*
X2718765Y-226466D01*
X2705100Y-225552D01*
X2691434Y-226466D01*
X2678023Y-229158D01*
X2665069Y-233527D01*
X2652776Y-239572D01*
X2641396Y-247192D01*
X2631135Y-256235D01*
X2622092Y-266496D01*
X2614472Y-277876D01*
X2608427Y-290169D01*
X2604058Y-303123D01*
X2601366Y-316534D01*
X2600452Y-330200D01*
X2601366Y-343865D01*
X2604058Y-357276D01*
X2608427Y-370230D01*
X2614472Y-382524D01*
X2622092Y-393903D01*
X2631135Y-404164D01*
X2641396Y-413207D01*
X2652776Y-420827D01*
X2665069Y-426872D01*
X2678023Y-431241D01*
X2691434Y-433933D01*
G37*
G36*
X2169769Y-434848D02*
G01*
X2205329Y-434848D01*
X2211628Y-434136D01*
X2217115Y-432206D01*
X2221992Y-429158D01*
X2226106Y-425043D01*
X2229205Y-420166D01*
X2231085Y-414680D01*
X2231796Y-408381D01*
X2231796Y-375920D01*
X2169769Y-375920D01*
G37*
G36*
X889000Y-4333748D02*
G01*
X902665Y-4332833D01*
X916076Y-4330141D01*
X929030Y-4325772D01*
X941324Y-4319727D01*
X952703Y-4312107D01*
X962964Y-4303064D01*
X972007Y-4292803D01*
X979627Y-4281424D01*
X985672Y-4269130D01*
X990041Y-4256176D01*
X992733Y-4242765D01*
X993648Y-4229100D01*
X992733Y-4215434D01*
X990041Y-4202023D01*
X985672Y-4189069D01*
X979627Y-4176776D01*
X972007Y-4165396D01*
X962964Y-4155135D01*
X952703Y-4146092D01*
X941324Y-4138472D01*
X929030Y-4132427D01*
X916076Y-4128058D01*
X902665Y-4125366D01*
X889000Y-4124451D01*
X875334Y-4125366D01*
X861923Y-4128058D01*
X848969Y-4132427D01*
X836676Y-4138472D01*
X825296Y-4146092D01*
X815035Y-4155135D01*
X805992Y-4165396D01*
X798372Y-4176776D01*
X792327Y-4189069D01*
X787958Y-4202023D01*
X785266Y-4215434D01*
X784352Y-4229100D01*
X785266Y-4242765D01*
X787958Y-4256176D01*
X792327Y-4269130D01*
X798372Y-4281424D01*
X805992Y-4292803D01*
X815035Y-4303064D01*
X825296Y-4312107D01*
X836676Y-4319727D01*
X848969Y-4325772D01*
X861923Y-4330141D01*
X875334Y-4332833D01*
G37*
G36*
X1908657Y-1849831D02*
G01*
X1926285Y-1848510D01*
X1943658Y-1845310D01*
X1960575Y-1840280D01*
X1976882Y-1833473D01*
X1992375Y-1824989D01*
X2006854Y-1814931D01*
X2020214Y-1803349D01*
X2032254Y-1790395D01*
X2042820Y-1776272D01*
X2051862Y-1761134D01*
X2059228Y-1745081D01*
X2064867Y-1728317D01*
X2068677Y-1711096D01*
X2070607Y-1693519D01*
X2070709Y-1675892D01*
X2068880Y-1658315D01*
X2065223Y-1641043D01*
X2059787Y-1624228D01*
X2052574Y-1608124D01*
X2043633Y-1592884D01*
X2033168Y-1578660D01*
X2021281Y-1565605D01*
X2008022Y-1553921D01*
X1993595Y-1543710D01*
X1978202Y-1535074D01*
X1961997Y-1528165D01*
X1945081Y-1522984D01*
X1927758Y-1519631D01*
X1910130Y-1518158D01*
X1892503Y-1518513D01*
X1874977Y-1520799D01*
X1857806Y-1524914D01*
X1841195Y-1530807D01*
X1824329Y-1539036D01*
X1820265Y-1540002D01*
X1816150Y-1539341D01*
X1812696Y-1537055D01*
X1805889Y-1530248D01*
X1799640Y-1525117D01*
X1792986Y-1521561D01*
X1785772Y-1519377D01*
X1777746Y-1518615D01*
X993140Y-1518615D01*
X989228Y-1517802D01*
X985926Y-1515618D01*
X984351Y-1514043D01*
X976325Y-1508404D01*
X967435Y-1504238D01*
X957935Y-1501698D01*
X948131Y-1500835D01*
X938377Y-1501698D01*
X928878Y-1504238D01*
X919987Y-1508404D01*
X911910Y-1514043D01*
X905002Y-1520952D01*
X899363Y-1529029D01*
X895197Y-1537919D01*
X892657Y-1547418D01*
X891794Y-1557223D01*
X892657Y-1566976D01*
X895197Y-1576476D01*
X899363Y-1585366D01*
X905002Y-1593443D01*
X911910Y-1600352D01*
X919987Y-1605991D01*
X928878Y-1610156D01*
X938377Y-1612696D01*
X948131Y-1613560D01*
X957935Y-1612696D01*
X967435Y-1610156D01*
X976325Y-1605991D01*
X984351Y-1600352D01*
X985926Y-1598777D01*
X989228Y-1596593D01*
X993140Y-1595831D01*
X1747367Y-1595831D01*
X1751431Y-1596644D01*
X1754835Y-1599031D01*
X1756968Y-1602587D01*
X1757527Y-1606702D01*
X1756359Y-1610715D01*
X1754225Y-1614728D01*
X1747723Y-1631137D01*
X1742998Y-1648155D01*
X1740103Y-1665579D01*
X1739087Y-1683207D01*
X1739950Y-1700885D01*
X1742693Y-1718310D01*
X1747266Y-1735378D01*
X1753616Y-1751838D01*
X1761693Y-1767535D01*
X1771396Y-1782318D01*
X1782622Y-1795932D01*
X1795221Y-1808327D01*
X1809038Y-1819300D01*
X1823974Y-1828749D01*
X1839823Y-1836521D01*
X1856384Y-1842566D01*
X1873554Y-1846834D01*
X1891030Y-1849272D01*
G37*
G36*
X2036470Y-434848D02*
G01*
X2072030Y-434848D01*
X2072030Y-375920D01*
X2010003Y-375920D01*
X2010003Y-408381D01*
X2010714Y-414680D01*
X2012594Y-420166D01*
X2015693Y-425043D01*
X2019807Y-429158D01*
X2024684Y-432206D01*
X2030171Y-434136D01*
G37*
G36*
X785469Y-434848D02*
G01*
X821029Y-434848D01*
X827328Y-434136D01*
X832815Y-432206D01*
X837692Y-429158D01*
X841806Y-425043D01*
X844905Y-420166D01*
X846785Y-414680D01*
X847496Y-408381D01*
X847496Y-375920D01*
X785469Y-375920D01*
G37*
G36*
X652170Y-434848D02*
G01*
X687730Y-434848D01*
X687730Y-375920D01*
X625703Y-375920D01*
X625703Y-408381D01*
X626414Y-414680D01*
X628294Y-420166D01*
X631393Y-425043D01*
X635508Y-429158D01*
X640384Y-432206D01*
X645871Y-434136D01*
G37*
G36*
X1625600Y-1212037D02*
G01*
X1635404Y-1211173D01*
X1644853Y-1208633D01*
X1653793Y-1204518D01*
X1661820Y-1198880D01*
X1668780Y-1191920D01*
X1674418Y-1183894D01*
X1678533Y-1174953D01*
X1681073Y-1165504D01*
X1681937Y-1155700D01*
X1681073Y-1145895D01*
X1678533Y-1136446D01*
X1674418Y-1127506D01*
X1668780Y-1119479D01*
X1667205Y-1117904D01*
X1664970Y-1114602D01*
X1664207Y-1110691D01*
X1664207Y-1074318D01*
X1664970Y-1070406D01*
X1667205Y-1067104D01*
X1773478Y-960831D01*
X1776374Y-958799D01*
X1779778Y-957884D01*
X1787804Y-957173D01*
X1797253Y-954633D01*
X1806193Y-950518D01*
X1814220Y-944880D01*
X1821180Y-937920D01*
X1826818Y-929894D01*
X1830933Y-920953D01*
X1833473Y-911504D01*
X1834337Y-901700D01*
X1833473Y-891895D01*
X1830933Y-882446D01*
X1826818Y-873506D01*
X1821180Y-865479D01*
X1814220Y-858519D01*
X1806193Y-852881D01*
X1797253Y-848766D01*
X1787804Y-846226D01*
X1778000Y-845362D01*
X1768195Y-846226D01*
X1758746Y-848766D01*
X1749806Y-852881D01*
X1741779Y-858519D01*
X1734820Y-865479D01*
X1729181Y-873506D01*
X1725066Y-882446D01*
X1722526Y-891895D01*
X1721815Y-899921D01*
X1720900Y-903325D01*
X1718868Y-906221D01*
X1598676Y-1026464D01*
X1593545Y-1032662D01*
X1589989Y-1039368D01*
X1587804Y-1046581D01*
X1586992Y-1054608D01*
X1586992Y-1110691D01*
X1586230Y-1114602D01*
X1583994Y-1117904D01*
X1582420Y-1119479D01*
X1576781Y-1127506D01*
X1572666Y-1136446D01*
X1570126Y-1145895D01*
X1569262Y-1155700D01*
X1570126Y-1165504D01*
X1572666Y-1174953D01*
X1576781Y-1183894D01*
X1582420Y-1191920D01*
X1589379Y-1198880D01*
X1597406Y-1204518D01*
X1606346Y-1208633D01*
X1615795Y-1211173D01*
G37*
G36*
X479043Y-441045D02*
G01*
X493268Y-440588D01*
X507288Y-438302D01*
X520903Y-434289D01*
X533908Y-428498D01*
X546049Y-421132D01*
X557174Y-412292D01*
X567029Y-402082D01*
X575513Y-390702D01*
X582523Y-378307D01*
X587857Y-365150D01*
X591464Y-351383D01*
X593242Y-337312D01*
X593242Y-323088D01*
X591464Y-309016D01*
X587857Y-295249D01*
X582523Y-282092D01*
X575513Y-269697D01*
X567029Y-258317D01*
X557174Y-248107D01*
X546049Y-239267D01*
X533908Y-231902D01*
X520903Y-226161D01*
X507288Y-222097D01*
X493268Y-219811D01*
X479043Y-219354D01*
X464921Y-220725D01*
X451053Y-223875D01*
X437692Y-228803D01*
X425094Y-235356D01*
X413461Y-243484D01*
X402945Y-253034D01*
X393750Y-263855D01*
X385978Y-275793D01*
X379831Y-288594D01*
X375361Y-302056D01*
X372618Y-316026D01*
X371703Y-330200D01*
X372618Y-344373D01*
X375361Y-358343D01*
X379831Y-371805D01*
X385978Y-384606D01*
X393750Y-396544D01*
X402945Y-407365D01*
X413461Y-416915D01*
X425094Y-425043D01*
X437692Y-431596D01*
X451053Y-436524D01*
X464921Y-439674D01*
G37*
G36*
X1863343Y-441045D02*
G01*
X1877568Y-440588D01*
X1891588Y-438302D01*
X1905203Y-434289D01*
X1918207Y-428498D01*
X1930349Y-421132D01*
X1941474Y-412292D01*
X1951329Y-402082D01*
X1959813Y-390702D01*
X1966823Y-378307D01*
X1972157Y-365150D01*
X1975764Y-351383D01*
X1977542Y-337312D01*
X1977542Y-323088D01*
X1975764Y-309016D01*
X1972157Y-295249D01*
X1966823Y-282092D01*
X1959813Y-269697D01*
X1951329Y-258317D01*
X1941474Y-248107D01*
X1930349Y-239267D01*
X1918207Y-231902D01*
X1905203Y-226161D01*
X1891588Y-222097D01*
X1877568Y-219811D01*
X1863343Y-219354D01*
X1849221Y-220725D01*
X1835353Y-223875D01*
X1821992Y-228803D01*
X1809394Y-235356D01*
X1797761Y-243484D01*
X1787245Y-253034D01*
X1778050Y-263855D01*
X1770278Y-275793D01*
X1764131Y-288594D01*
X1759661Y-302056D01*
X1756918Y-316026D01*
X1756003Y-330200D01*
X1756918Y-344373D01*
X1759661Y-358343D01*
X1764131Y-371805D01*
X1770278Y-384606D01*
X1778050Y-396544D01*
X1787245Y-407365D01*
X1797761Y-416915D01*
X1809394Y-425043D01*
X1821992Y-431596D01*
X1835353Y-436524D01*
X1849221Y-439674D01*
G37*
G36*
X3258820Y-434848D02*
G01*
X3291281Y-434848D01*
X3297580Y-434136D01*
X3303066Y-432206D01*
X3307943Y-429158D01*
X3312058Y-425043D01*
X3315106Y-420166D01*
X3317036Y-414680D01*
X3317748Y-408381D01*
X3317748Y-375920D01*
X3258820Y-375920D01*
G37*
G36*
X3134918Y-434848D02*
G01*
X3167380Y-434848D01*
X3167380Y-375920D01*
X3108452Y-375920D01*
X3108452Y-408381D01*
X3109163Y-414680D01*
X3111093Y-420166D01*
X3114141Y-425043D01*
X3118256Y-429158D01*
X3123133Y-432206D01*
X3128619Y-434136D01*
G37*

%LPD*%
D10*
X1155700Y-1435100D02*
G01*
X1346200Y-1244600D01*
X1346200Y-736600D01*
X2298700Y-1422400D02*
G01*
X2238390Y-1482709D01*
X2238390Y-2986483D01*
X1349984Y-3755316D02*
G01*
X1756285Y-3349015D01*
X2866316Y-3349015D01*
X723541Y-3755316D02*
G01*
X1349984Y-3755316D01*
X1031179Y-1041400D02*
G01*
X825500Y-1247079D01*
X825500Y-1993900D01*
X457200Y-2362200D01*
X457200Y-2489200D01*
X1778000Y-901700D02*
G01*
X1625600Y-1054100D01*
X1625600Y-1155700D01*
X948143Y-1557197D02*
G01*
X1778233Y-1557197D01*
X1905002Y-1683966D01*
X1904997Y-3904033D02*
G01*
X1795830Y-4013200D01*
X838200Y-4013200D01*
X635000Y-4216400D01*
X635000Y-4229100D01*
X943683Y-2238984D02*
G01*
X1349982Y-1832686D01*
D11*
G01*
X2120900Y-330200D03*
D12*
G01*
X1866900Y-330200D03*
D11*
G01*
X736600Y-330200D03*
D12*
G01*
X482600Y-330200D03*
D13*
G01*
X2705100Y-330200D03*
G01*
X2959100Y-330200D03*
D14*
G01*
X3213100Y-330200D03*
D15*
G01*
X1571609Y-2601516D03*
D16*
G01*
X794966Y-2793998D03*
D15*
G01*
X943683Y-2238984D03*
G01*
X2238390Y-2986483D03*
G01*
X1349982Y-1832683D03*
G01*
X1905002Y-1683966D03*
G01*
X2460015Y-1832683D03*
G01*
X2866316Y-2238982D03*
G01*
X3015033Y-2794002D03*
G01*
X2866316Y-3349015D03*
G01*
X2460017Y-3755316D03*
G01*
X1904997Y-3904033D03*
G01*
X1349984Y-3755316D03*
G01*
X943683Y-3349017D03*
D13*
G01*
X889000Y-4229100D03*
G01*
X635000Y-4229100D03*
D14*
G01*
X381000Y-4229100D03*
D17*
G01*
X2298700Y-1422400D03*
G01*
X948143Y-1557197D03*
G01*
X1625600Y-1155700D03*
G01*
X1778000Y-901700D03*
G01*
X1031179Y-1041400D03*
G01*
X457200Y-2489200D03*
G01*
X723541Y-3755316D03*
G01*
X1155700Y-1435100D03*
G01*
X1346200Y-736600D03*
M02*
