G04 Layer: TopSilkscreenLayer*
G04 EasyEDA v6.5.15, 2023-01-26 07:11:18*
G04 bc408e8c05344163a153380a18e2a67f,cd9332c1ef044f0797b2d1e08cb7fb93,10*
G04 Gerber Generator version 0.2*
G04 Scale: 100 percent, Rotated: No, Reflected: No *
G04 Dimensions in millimeters *
G04 leading zeros omitted , absolute positions ,4 integer and 5 decimal *
%FSLAX45Y45*%
%MOMM*%

%ADD10C,0.1520*%
%ADD11C,0.1524*%
%ADD12C,0.2540*%
%ADD13C,0.2030*%
%ADD14C,0.2032*%
%ADD15C,0.1519*%
%ADD16C,0.2499*%
%ADD17C,0.0190*%

%LPD*%
G36*
X663956Y-3861308D02*
G01*
X657148Y-3861968D01*
X650951Y-3864000D01*
X645414Y-3867251D01*
X640638Y-3871671D01*
X636778Y-3877208D01*
X633882Y-3883812D01*
X632053Y-3891381D01*
X631444Y-3899915D01*
X632053Y-3908399D01*
X633882Y-3915968D01*
X636727Y-3922522D01*
X640588Y-3928059D01*
X645261Y-3932428D01*
X650748Y-3935628D01*
X656844Y-3937609D01*
X663448Y-3938270D01*
X670255Y-3937558D01*
X676198Y-3935526D01*
X681431Y-3932174D01*
X686054Y-3927601D01*
X681482Y-3922268D01*
X677722Y-3925976D01*
X673557Y-3928668D01*
X669036Y-3930345D01*
X663956Y-3930904D01*
X658723Y-3930345D01*
X653999Y-3928719D01*
X649935Y-3926027D01*
X646480Y-3922420D01*
X643737Y-3917899D01*
X641756Y-3912565D01*
X640486Y-3906469D01*
X640080Y-3899662D01*
X640537Y-3892854D01*
X641807Y-3886758D01*
X643890Y-3881475D01*
X646734Y-3877005D01*
X650189Y-3873449D01*
X654354Y-3870858D01*
X659028Y-3869232D01*
X664210Y-3868674D01*
X668731Y-3869182D01*
X672795Y-3870604D01*
X676452Y-3872839D01*
X679704Y-3875786D01*
X684276Y-3870451D01*
X680567Y-3866997D01*
X675944Y-3864051D01*
X670356Y-3862070D01*
G37*
G36*
X800608Y-3861308D02*
G01*
X794004Y-3861968D01*
X787958Y-3863949D01*
X782624Y-3867150D01*
X778002Y-3871518D01*
X774242Y-3876954D01*
X771448Y-3883507D01*
X769721Y-3890975D01*
X769112Y-3899408D01*
X777748Y-3899408D01*
X778154Y-3892702D01*
X779373Y-3886657D01*
X781354Y-3881424D01*
X784047Y-3877005D01*
X787349Y-3873449D01*
X791260Y-3870807D01*
X795680Y-3869232D01*
X800608Y-3868674D01*
X805535Y-3869232D01*
X809955Y-3870807D01*
X813866Y-3873449D01*
X817168Y-3877005D01*
X819861Y-3881424D01*
X821842Y-3886657D01*
X823061Y-3892702D01*
X823468Y-3899408D01*
X823061Y-3906316D01*
X821842Y-3912463D01*
X819861Y-3917848D01*
X817168Y-3922420D01*
X813866Y-3926027D01*
X809955Y-3928719D01*
X805535Y-3930345D01*
X800608Y-3930904D01*
X795680Y-3930345D01*
X791260Y-3928719D01*
X787349Y-3926027D01*
X784047Y-3922420D01*
X781354Y-3917848D01*
X779373Y-3912463D01*
X778154Y-3906316D01*
X777748Y-3899408D01*
X769112Y-3899408D01*
X769721Y-3907942D01*
X771448Y-3915562D01*
X774242Y-3922217D01*
X778002Y-3927805D01*
X782624Y-3932275D01*
X787958Y-3935577D01*
X794004Y-3937558D01*
X800608Y-3938270D01*
X807262Y-3937558D01*
X813358Y-3935577D01*
X818743Y-3932275D01*
X823315Y-3927805D01*
X827024Y-3922217D01*
X829767Y-3915562D01*
X831494Y-3907942D01*
X832103Y-3899408D01*
X831494Y-3890975D01*
X829767Y-3883507D01*
X827024Y-3876954D01*
X823315Y-3871518D01*
X818743Y-3867150D01*
X813358Y-3863949D01*
X807262Y-3861968D01*
G37*
G36*
X905764Y-3861308D02*
G01*
X898956Y-3861968D01*
X892759Y-3864000D01*
X887221Y-3867251D01*
X882446Y-3871671D01*
X878586Y-3877208D01*
X875690Y-3883812D01*
X873861Y-3891381D01*
X873252Y-3899915D01*
X873861Y-3908399D01*
X875690Y-3915968D01*
X878535Y-3922522D01*
X882396Y-3928059D01*
X887069Y-3932428D01*
X892556Y-3935628D01*
X898652Y-3937609D01*
X905256Y-3938270D01*
X912063Y-3937558D01*
X918006Y-3935526D01*
X923239Y-3932174D01*
X927862Y-3927601D01*
X923290Y-3922268D01*
X919530Y-3925976D01*
X915365Y-3928668D01*
X910844Y-3930345D01*
X905764Y-3930904D01*
X900531Y-3930345D01*
X895807Y-3928719D01*
X891743Y-3926027D01*
X888288Y-3922420D01*
X885545Y-3917899D01*
X883564Y-3912565D01*
X882294Y-3906469D01*
X881887Y-3899662D01*
X882345Y-3892854D01*
X883615Y-3886758D01*
X885698Y-3881475D01*
X888542Y-3877005D01*
X891997Y-3873449D01*
X896162Y-3870858D01*
X900836Y-3869232D01*
X906018Y-3868674D01*
X910539Y-3869182D01*
X914603Y-3870604D01*
X918260Y-3872839D01*
X921512Y-3875786D01*
X926084Y-3870451D01*
X922375Y-3866997D01*
X917752Y-3864051D01*
X912164Y-3862070D01*
G37*
G36*
X289814Y-3862578D02*
G01*
X289814Y-3937000D01*
X298196Y-3937000D01*
X298196Y-3862578D01*
G37*
G36*
X319024Y-3862578D02*
G01*
X319024Y-3937000D01*
X360172Y-3937000D01*
X360172Y-3929887D01*
X327406Y-3929887D01*
X327406Y-3862578D01*
G37*
G36*
X373380Y-3862578D02*
G01*
X373380Y-3937000D01*
X414782Y-3937000D01*
X414782Y-3929887D01*
X381762Y-3929887D01*
X381762Y-3862578D01*
G37*
G36*
X424434Y-3862578D02*
G01*
X424434Y-3906774D01*
X424942Y-3914901D01*
X426466Y-3921658D01*
X428904Y-3927144D01*
X432104Y-3931361D01*
X436016Y-3934510D01*
X440486Y-3936695D01*
X445465Y-3937863D01*
X450850Y-3938270D01*
X456133Y-3937863D01*
X461060Y-3936695D01*
X465480Y-3934510D01*
X469341Y-3931361D01*
X472541Y-3927144D01*
X474980Y-3921658D01*
X476504Y-3914901D01*
X477012Y-3906774D01*
X477012Y-3862578D01*
X469138Y-3862578D01*
X469138Y-3907028D01*
X468782Y-3913327D01*
X467664Y-3918458D01*
X465988Y-3922623D01*
X463702Y-3925824D01*
X461009Y-3928160D01*
X457911Y-3929735D01*
X454456Y-3930650D01*
X450850Y-3930904D01*
X443839Y-3929735D01*
X438099Y-3925824D01*
X434238Y-3918458D01*
X432816Y-3907028D01*
X432816Y-3862578D01*
G37*
G36*
X497585Y-3862578D02*
G01*
X497585Y-3937000D01*
X505206Y-3937000D01*
X505104Y-3888943D01*
X504190Y-3872484D01*
X504443Y-3872484D01*
X525018Y-3929379D01*
X530860Y-3929379D01*
X545338Y-3889248D01*
X551180Y-3872484D01*
X551688Y-3872484D01*
X550976Y-3883355D01*
X550672Y-3894074D01*
X550672Y-3937000D01*
X558546Y-3937000D01*
X558546Y-3862578D01*
X548132Y-3862578D01*
X532333Y-3907231D01*
X528320Y-3919220D01*
X527812Y-3919220D01*
X523798Y-3907231D01*
X508000Y-3862578D01*
G37*
G36*
X700278Y-3862578D02*
G01*
X700278Y-3937000D01*
X708660Y-3937000D01*
X708660Y-3901440D01*
X744474Y-3901440D01*
X744474Y-3937000D01*
X752856Y-3937000D01*
X752856Y-3862578D01*
X744474Y-3862578D01*
X744474Y-3894074D01*
X708660Y-3894074D01*
X708660Y-3862578D01*
G37*
G36*
X848360Y-3862578D02*
G01*
X848360Y-3937000D01*
X856996Y-3937000D01*
X856996Y-3862578D01*
G37*
G36*
X942086Y-3862578D02*
G01*
X942086Y-3937000D01*
X985519Y-3937000D01*
X985519Y-3929887D01*
X950468Y-3929887D01*
X950468Y-3901440D01*
X978916Y-3901440D01*
X978916Y-3894328D01*
X950468Y-3894328D01*
X950468Y-3869690D01*
X984503Y-3869690D01*
X984503Y-3862578D01*
G37*
G36*
X570230Y-3945128D02*
G01*
X570230Y-3950970D01*
X624078Y-3950970D01*
X624078Y-3945128D01*
G37*
D10*
X266700Y-3961384D02*
G01*
X266700Y-4070350D01*
X266700Y-4070350D02*
G01*
X328929Y-4070350D01*
X394462Y-3961384D02*
G01*
X384047Y-3966463D01*
X373634Y-3976878D01*
X368554Y-3987292D01*
X363220Y-4003039D01*
X363220Y-4028947D01*
X368554Y-4044442D01*
X373634Y-4054855D01*
X384047Y-4065270D01*
X394462Y-4070350D01*
X415289Y-4070350D01*
X425704Y-4065270D01*
X436118Y-4054855D01*
X441197Y-4044442D01*
X446531Y-4028947D01*
X446531Y-4003039D01*
X441197Y-3987292D01*
X436118Y-3976878D01*
X425704Y-3966463D01*
X415289Y-3961384D01*
X394462Y-3961384D01*
X880871Y-3961384D02*
G01*
X880871Y-4070350D01*
X953515Y-3961384D02*
G01*
X953515Y-4070350D01*
X880871Y-4013200D02*
G01*
X953515Y-4013200D01*
X987805Y-3961384D02*
G01*
X987805Y-4070350D01*
X288036Y-281178D02*
G01*
X288036Y-374650D01*
X241300Y-327913D02*
G01*
X334771Y-327913D01*
X1672336Y-281178D02*
G01*
X1672336Y-374650D01*
X1625600Y-327913D02*
G01*
X1719071Y-327913D01*
X2510536Y-281178D02*
G01*
X2510536Y-374650D01*
X2463800Y-327913D02*
G01*
X2557272Y-327913D01*
D11*
X292100Y-1357884D02*
G01*
X292100Y-1466850D01*
X292100Y-1357884D02*
G01*
X328421Y-1357884D01*
X344170Y-1362963D01*
X354329Y-1373378D01*
X359663Y-1383792D01*
X364744Y-1399539D01*
X364744Y-1425447D01*
X359663Y-1440942D01*
X354329Y-1451355D01*
X344170Y-1461770D01*
X328421Y-1466850D01*
X292100Y-1466850D01*
X451104Y-1357884D02*
G01*
X399034Y-1430528D01*
X477012Y-1430528D01*
X451104Y-1357884D02*
G01*
X451104Y-1466850D01*
X2209800Y-722884D02*
G01*
X2209800Y-831850D01*
X2209800Y-722884D02*
G01*
X2246122Y-722884D01*
X2261870Y-727963D01*
X2272029Y-738378D01*
X2277363Y-748792D01*
X2282443Y-764539D01*
X2282443Y-790447D01*
X2277363Y-805942D01*
X2272029Y-816355D01*
X2261870Y-826770D01*
X2246122Y-831850D01*
X2209800Y-831850D01*
X2379218Y-722884D02*
G01*
X2327147Y-722884D01*
X2322068Y-769620D01*
X2327147Y-764539D01*
X2342895Y-759205D01*
X2358390Y-759205D01*
X2373884Y-764539D01*
X2384297Y-774700D01*
X2389631Y-790447D01*
X2389631Y-800862D01*
X2384297Y-816355D01*
X2373884Y-826770D01*
X2358390Y-831850D01*
X2342895Y-831850D01*
X2327147Y-826770D01*
X2322068Y-821689D01*
X2316734Y-811276D01*
X2463800Y-722884D02*
G01*
X2463800Y-831850D01*
X2463800Y-722884D02*
G01*
X2500122Y-722884D01*
X2515870Y-727963D01*
X2526029Y-738378D01*
X2531363Y-748792D01*
X2536443Y-764539D01*
X2536443Y-790447D01*
X2531363Y-805942D01*
X2526029Y-816355D01*
X2515870Y-826770D01*
X2500122Y-831850D01*
X2463800Y-831850D01*
X2633218Y-738378D02*
G01*
X2627884Y-727963D01*
X2612390Y-722884D01*
X2601975Y-722884D01*
X2586481Y-727963D01*
X2576068Y-743712D01*
X2570734Y-769620D01*
X2570734Y-795528D01*
X2576068Y-816355D01*
X2586481Y-826770D01*
X2601975Y-831850D01*
X2607309Y-831850D01*
X2622804Y-826770D01*
X2633218Y-816355D01*
X2638297Y-800862D01*
X2638297Y-795528D01*
X2633218Y-780034D01*
X2622804Y-769620D01*
X2607309Y-764539D01*
X2601975Y-764539D01*
X2586481Y-769620D01*
X2576068Y-780034D01*
X2570734Y-795528D01*
X3023615Y-761908D02*
G01*
X2914650Y-761908D01*
X3023615Y-761908D02*
G01*
X3023615Y-808644D01*
X3018536Y-824392D01*
X3013202Y-829472D01*
X3002788Y-834806D01*
X2992374Y-834806D01*
X2981959Y-829472D01*
X2976879Y-824392D01*
X2971800Y-808644D01*
X2971800Y-761908D01*
X2971800Y-798484D02*
G01*
X2914650Y-834806D01*
X2997708Y-874176D02*
G01*
X3002788Y-874176D01*
X3013202Y-879510D01*
X3018536Y-884590D01*
X3023615Y-895004D01*
X3023615Y-915832D01*
X3018536Y-926246D01*
X3013202Y-931326D01*
X3002788Y-936660D01*
X2992374Y-936660D01*
X2981959Y-931326D01*
X2966465Y-920912D01*
X2914650Y-869096D01*
X2914650Y-941740D01*
X3023615Y-1130300D02*
G01*
X2914650Y-1130300D01*
X3023615Y-1130300D02*
G01*
X3023615Y-1177036D01*
X3018536Y-1192529D01*
X3013202Y-1197863D01*
X3002788Y-1202944D01*
X2992374Y-1202944D01*
X2981959Y-1197863D01*
X2976879Y-1192529D01*
X2971800Y-1177036D01*
X2971800Y-1130300D01*
X2971800Y-1166621D02*
G01*
X2914650Y-1202944D01*
X3023615Y-1247647D02*
G01*
X3023615Y-1304797D01*
X2981959Y-1273810D01*
X2981959Y-1289304D01*
X2976879Y-1299718D01*
X2971800Y-1304797D01*
X2956052Y-1310131D01*
X2945638Y-1310131D01*
X2930143Y-1304797D01*
X2919729Y-1294384D01*
X2914650Y-1278889D01*
X2914650Y-1263395D01*
X2919729Y-1247647D01*
X2924809Y-1242568D01*
X2935224Y-1237234D01*
X330200Y-2615184D02*
G01*
X330200Y-2724150D01*
X330200Y-2615184D02*
G01*
X376936Y-2615184D01*
X392429Y-2620263D01*
X397763Y-2625597D01*
X402844Y-2636012D01*
X402844Y-2646426D01*
X397763Y-2656839D01*
X392429Y-2661920D01*
X376936Y-2667000D01*
X330200Y-2667000D01*
X366521Y-2667000D02*
G01*
X402844Y-2724150D01*
X489204Y-2615184D02*
G01*
X437134Y-2687828D01*
X515112Y-2687828D01*
X489204Y-2615184D02*
G01*
X489204Y-2724150D01*
X355600Y-3212084D02*
G01*
X355600Y-3321050D01*
X355600Y-3212084D02*
G01*
X402336Y-3212084D01*
X417829Y-3217163D01*
X423163Y-3222497D01*
X428244Y-3232912D01*
X428244Y-3243326D01*
X423163Y-3253739D01*
X417829Y-3258820D01*
X402336Y-3263900D01*
X355600Y-3263900D01*
X391921Y-3263900D02*
G01*
X428244Y-3321050D01*
X525018Y-3212084D02*
G01*
X472947Y-3212084D01*
X467868Y-3258820D01*
X472947Y-3253739D01*
X488695Y-3248405D01*
X504189Y-3248405D01*
X519684Y-3253739D01*
X530097Y-3263900D01*
X535431Y-3279647D01*
X535431Y-3290062D01*
X530097Y-3305555D01*
X519684Y-3315970D01*
X504189Y-3321050D01*
X488695Y-3321050D01*
X472947Y-3315970D01*
X467868Y-3310889D01*
X462534Y-3300476D01*
X2324100Y-610615D02*
G01*
X2324100Y-501650D01*
X2324100Y-610615D02*
G01*
X2277363Y-610615D01*
X2261870Y-605536D01*
X2256536Y-600202D01*
X2251456Y-589787D01*
X2251456Y-579373D01*
X2256536Y-568960D01*
X2261870Y-563879D01*
X2277363Y-558800D01*
X2324100Y-558800D02*
G01*
X2277363Y-558800D01*
X2261870Y-553465D01*
X2256536Y-548386D01*
X2251456Y-537971D01*
X2251456Y-522223D01*
X2256536Y-511810D01*
X2261870Y-506729D01*
X2277363Y-501650D01*
X2324100Y-501650D01*
X2217165Y-610615D02*
G01*
X2217165Y-532637D01*
X2211831Y-517144D01*
X2201418Y-506729D01*
X2185924Y-501650D01*
X2175509Y-501650D01*
X2160015Y-506729D01*
X2149602Y-517144D01*
X2144268Y-532637D01*
X2144268Y-610615D01*
X2073656Y-610615D02*
G01*
X2073656Y-501650D01*
X2109977Y-610615D02*
G01*
X2037334Y-610615D01*
X1966722Y-610615D02*
G01*
X1966722Y-501650D01*
X2003043Y-610615D02*
G01*
X1930400Y-610615D01*
X1864868Y-610615D02*
G01*
X1875281Y-605536D01*
X1885695Y-595121D01*
X1890776Y-584707D01*
X1896110Y-568960D01*
X1896110Y-543052D01*
X1890776Y-527557D01*
X1885695Y-517144D01*
X1875281Y-506729D01*
X1864868Y-501650D01*
X1844039Y-501650D01*
X1833626Y-506729D01*
X1823212Y-517144D01*
X1818131Y-527557D01*
X1812797Y-543052D01*
X1812797Y-568960D01*
X1818131Y-584707D01*
X1823212Y-595121D01*
X1833626Y-605536D01*
X1844039Y-610615D01*
X1864868Y-610615D01*
X1778507Y-610615D02*
G01*
X1778507Y-501650D01*
X1778507Y-610615D02*
G01*
X1705863Y-501650D01*
X1705863Y-610615D02*
G01*
X1705863Y-501650D01*
X838200Y-597915D02*
G01*
X838200Y-488950D01*
X803910Y-597915D02*
G01*
X803910Y-488950D01*
X803910Y-488950D02*
G01*
X741679Y-488950D01*
X707389Y-597915D02*
G01*
X707389Y-488950D01*
X707389Y-488950D02*
G01*
X644905Y-488950D01*
X610615Y-597915D02*
G01*
X610615Y-519937D01*
X605536Y-504444D01*
X595121Y-494029D01*
X579373Y-488950D01*
X568960Y-488950D01*
X553465Y-494029D01*
X543052Y-504444D01*
X537971Y-519937D01*
X537971Y-597915D01*
X503681Y-597915D02*
G01*
X503681Y-488950D01*
X503681Y-597915D02*
G01*
X462026Y-488950D01*
X420370Y-597915D02*
G01*
X462026Y-488950D01*
X420370Y-597915D02*
G01*
X420370Y-488950D01*
X3200400Y-597915D02*
G01*
X3200400Y-488950D01*
X3200400Y-488950D02*
G01*
X3138170Y-488950D01*
X3062224Y-597915D02*
G01*
X3103879Y-488950D01*
X3062224Y-597915D02*
G01*
X3020568Y-488950D01*
X3088131Y-525271D02*
G01*
X3036315Y-525271D01*
X2913634Y-582421D02*
G01*
X2924047Y-592836D01*
X2939541Y-597915D01*
X2960370Y-597915D01*
X2975863Y-592836D01*
X2986277Y-582421D01*
X2986277Y-572007D01*
X2981197Y-561594D01*
X2975863Y-556260D01*
X2965450Y-551179D01*
X2934461Y-540765D01*
X2924047Y-535686D01*
X2918713Y-530352D01*
X2913634Y-519937D01*
X2913634Y-504444D01*
X2924047Y-494029D01*
X2939541Y-488950D01*
X2960370Y-488950D01*
X2975863Y-494029D01*
X2986277Y-504444D01*
X2879343Y-597915D02*
G01*
X2879343Y-488950D01*
X2879343Y-597915D02*
G01*
X2811779Y-597915D01*
X2879343Y-546100D02*
G01*
X2837688Y-546100D01*
X2879343Y-488950D02*
G01*
X2811779Y-488950D01*
X2777490Y-597915D02*
G01*
X2777490Y-488950D01*
X2777490Y-597915D02*
G01*
X2730754Y-597915D01*
X2715259Y-592836D01*
X2709925Y-587502D01*
X2704845Y-577087D01*
X2704845Y-566673D01*
X2709925Y-556260D01*
X2715259Y-551179D01*
X2730754Y-546100D01*
X2777490Y-546100D01*
X2741168Y-546100D02*
G01*
X2704845Y-488950D01*
X990092Y-861821D02*
G01*
X979678Y-867155D01*
X969263Y-877570D01*
X964184Y-887729D01*
X964184Y-908557D01*
X969263Y-918971D01*
X979678Y-929386D01*
X990092Y-934720D01*
X1005839Y-939800D01*
X1031747Y-939800D01*
X1047242Y-934720D01*
X1057655Y-929386D01*
X1068070Y-918971D01*
X1073150Y-908557D01*
X1073150Y-887729D01*
X1068070Y-877570D01*
X1057655Y-867155D01*
X1047242Y-861821D01*
X985012Y-827531D02*
G01*
X979678Y-817118D01*
X964184Y-801623D01*
X1073150Y-801623D01*
X837692Y-1293621D02*
G01*
X827278Y-1298955D01*
X816863Y-1309370D01*
X811784Y-1319529D01*
X811784Y-1340357D01*
X816863Y-1350771D01*
X827278Y-1361186D01*
X837692Y-1366520D01*
X853439Y-1371600D01*
X879347Y-1371600D01*
X894842Y-1366520D01*
X905255Y-1361186D01*
X915670Y-1350771D01*
X920750Y-1340357D01*
X920750Y-1319529D01*
X915670Y-1309370D01*
X905255Y-1298955D01*
X894842Y-1293621D01*
X837692Y-1254252D02*
G01*
X832612Y-1254252D01*
X822197Y-1248918D01*
X816863Y-1243837D01*
X811784Y-1233423D01*
X811784Y-1212595D01*
X816863Y-1202181D01*
X822197Y-1197102D01*
X832612Y-1191768D01*
X843026Y-1191768D01*
X853439Y-1197102D01*
X868934Y-1207515D01*
X920750Y-1259331D01*
X920750Y-1186687D01*
X3365500Y-1345184D02*
G01*
X3365500Y-1454150D01*
X3365500Y-1345184D02*
G01*
X3401822Y-1345184D01*
X3417570Y-1350263D01*
X3427729Y-1360678D01*
X3433063Y-1371092D01*
X3438143Y-1386839D01*
X3438143Y-1412747D01*
X3433063Y-1428242D01*
X3427729Y-1438655D01*
X3417570Y-1449070D01*
X3401822Y-1454150D01*
X3365500Y-1454150D01*
X3472434Y-1366012D02*
G01*
X3482847Y-1360678D01*
X3498595Y-1345184D01*
X3498595Y-1454150D01*
X558800Y-1357884D02*
G01*
X558800Y-1466850D01*
X558800Y-1357884D02*
G01*
X595121Y-1357884D01*
X610870Y-1362963D01*
X621029Y-1373378D01*
X626363Y-1383792D01*
X631444Y-1399539D01*
X631444Y-1425447D01*
X626363Y-1440942D01*
X621029Y-1451355D01*
X610870Y-1461770D01*
X595121Y-1466850D01*
X558800Y-1466850D01*
X671068Y-1383792D02*
G01*
X671068Y-1378712D01*
X676147Y-1368297D01*
X681481Y-1362963D01*
X691895Y-1357884D01*
X712470Y-1357884D01*
X722884Y-1362963D01*
X728218Y-1368297D01*
X733297Y-1378712D01*
X733297Y-1389126D01*
X728218Y-1399539D01*
X717804Y-1415034D01*
X665734Y-1466850D01*
X738631Y-1466850D01*
X3086100Y-1345184D02*
G01*
X3086100Y-1454150D01*
X3086100Y-1345184D02*
G01*
X3122422Y-1345184D01*
X3138170Y-1350263D01*
X3148329Y-1360678D01*
X3153663Y-1371092D01*
X3158743Y-1386839D01*
X3158743Y-1412747D01*
X3153663Y-1428242D01*
X3148329Y-1438655D01*
X3138170Y-1449070D01*
X3122422Y-1454150D01*
X3086100Y-1454150D01*
X3203447Y-1345184D02*
G01*
X3260597Y-1345184D01*
X3229609Y-1386839D01*
X3245104Y-1386839D01*
X3255518Y-1391920D01*
X3260597Y-1397000D01*
X3265931Y-1412747D01*
X3265931Y-1423162D01*
X3260597Y-1438655D01*
X3250184Y-1449070D01*
X3234690Y-1454150D01*
X3219195Y-1454150D01*
X3203447Y-1449070D01*
X3198368Y-1443989D01*
X3193034Y-1433576D01*
X1271158Y-681487D02*
G01*
X1281572Y-676407D01*
X1291986Y-665993D01*
X1297320Y-655579D01*
X1302400Y-639831D01*
X1302400Y-613923D01*
X1297320Y-598429D01*
X1291986Y-588015D01*
X1281572Y-577601D01*
X1271158Y-572521D01*
X1250330Y-572521D01*
X1240170Y-577601D01*
X1229756Y-588015D01*
X1224422Y-598429D01*
X1219342Y-613923D01*
X1219342Y-639831D01*
X1224422Y-655579D01*
X1229756Y-665993D01*
X1240170Y-676407D01*
X1250330Y-681487D01*
X1271158Y-681487D01*
X1255664Y-593095D02*
G01*
X1224422Y-562107D01*
X1185052Y-660659D02*
G01*
X1174638Y-665993D01*
X1158890Y-681487D01*
X1158890Y-572521D01*
X698500Y-722884D02*
G01*
X698500Y-831850D01*
X698500Y-722884D02*
G01*
X745236Y-722884D01*
X760729Y-727963D01*
X766063Y-733297D01*
X771144Y-743712D01*
X771144Y-754126D01*
X766063Y-764539D01*
X760729Y-769620D01*
X745236Y-774700D01*
X698500Y-774700D01*
X734821Y-774700D02*
G01*
X771144Y-831850D01*
X805434Y-743712D02*
G01*
X815847Y-738378D01*
X831595Y-722884D01*
X831595Y-831850D01*
X1682633Y-2259677D02*
G01*
X1669877Y-2252314D01*
X1653598Y-2251417D01*
X1633479Y-2256807D01*
X1619826Y-2265725D01*
X1612463Y-2278479D01*
X1615158Y-2288539D01*
X1622760Y-2297282D01*
X1629293Y-2301054D01*
X1640667Y-2303266D01*
X1673539Y-2305240D01*
X1684670Y-2307516D01*
X1691203Y-2311288D01*
X1698805Y-2320033D01*
X1702815Y-2334999D01*
X1695450Y-2347755D01*
X1681800Y-2356670D01*
X1661680Y-2362062D01*
X1645401Y-2361163D01*
X1632645Y-2353800D01*
X1711744Y-2235837D02*
G01*
X1765216Y-2334318D01*
X1762038Y-2222360D02*
G01*
X1765216Y-2334318D01*
X1762038Y-2222360D02*
G01*
X1815266Y-2320907D01*
X1812089Y-2208949D02*
G01*
X1815266Y-2320907D01*
X1857070Y-2223719D02*
G01*
X1855754Y-2218811D01*
X1857966Y-2207437D01*
X1861738Y-2200904D01*
X1870481Y-2193302D01*
X1890600Y-2187912D01*
X1901728Y-2190191D01*
X1908261Y-2193963D01*
X1915863Y-2202705D01*
X1918558Y-2212766D01*
X1916348Y-2224138D01*
X1910298Y-2241801D01*
X1873415Y-2305326D01*
X1943828Y-2286459D01*
X1663700Y-659384D02*
G01*
X1663700Y-737362D01*
X1668779Y-752855D01*
X1679194Y-763270D01*
X1694942Y-768350D01*
X1705355Y-768350D01*
X1720850Y-763270D01*
X1731263Y-752855D01*
X1736344Y-737362D01*
X1736344Y-659384D01*
X1770634Y-680212D02*
G01*
X1781047Y-674878D01*
X1796795Y-659384D01*
X1796795Y-768350D01*
D12*
X468299Y-1577200D02*
G01*
X468299Y-1877199D01*
X368300Y-1709420D02*
G01*
X408939Y-1767839D01*
X408939Y-1767839D02*
G01*
X327660Y-1767839D01*
X327660Y-1767839D02*
G01*
X368300Y-1709420D01*
X268300Y-1877199D02*
G01*
X268300Y-1577200D01*
X419100Y-1686560D02*
G01*
X317500Y-1686560D01*
X2398699Y-954900D02*
G01*
X2398699Y-1254899D01*
X2298700Y-1087120D02*
G01*
X2339340Y-1145539D01*
X2339340Y-1145539D02*
G01*
X2258059Y-1145539D01*
X2258059Y-1145539D02*
G01*
X2298700Y-1087120D01*
X2198700Y-1254899D02*
G01*
X2198700Y-954900D01*
X2349500Y-1064260D02*
G01*
X2247900Y-1064260D01*
X2452700Y-1254899D02*
G01*
X2452700Y-954900D01*
X2552700Y-1122679D02*
G01*
X2512059Y-1064260D01*
X2512059Y-1064260D02*
G01*
X2593340Y-1064260D01*
X2593340Y-1064260D02*
G01*
X2552700Y-1122679D01*
X2652699Y-954900D02*
G01*
X2652699Y-1254899D01*
X2501900Y-1145539D02*
G01*
X2603500Y-1145539D01*
D11*
X2702290Y-885819D02*
G01*
X2702290Y-1014313D01*
X2885709Y-1014313D01*
X2885709Y-885819D01*
X2702290Y-790580D02*
G01*
X2702290Y-662086D01*
X2885709Y-662086D01*
X2885709Y-790580D01*
X2885709Y-1171580D02*
G01*
X2885709Y-1043086D01*
X2702290Y-1043086D01*
X2702290Y-1171580D01*
X2885709Y-1266819D02*
G01*
X2885709Y-1395313D01*
X2702290Y-1395313D01*
X2702290Y-1266819D01*
X510809Y-2886080D02*
G01*
X510809Y-2757586D01*
X327390Y-2757586D01*
X327390Y-2886080D01*
X510809Y-2981319D02*
G01*
X510809Y-3109813D01*
X327390Y-3109813D01*
X327390Y-2981319D01*
X536209Y-3482980D02*
G01*
X536209Y-3354486D01*
X352790Y-3354486D01*
X352790Y-3482980D01*
X536209Y-3578219D02*
G01*
X536209Y-3706713D01*
X352790Y-3706713D01*
X352790Y-3578219D01*
D13*
X1739900Y-457200D02*
G01*
X2057400Y-457200D01*
D14*
X1739900Y-457200D02*
G01*
X1739900Y-203200D01*
X2247900Y-203200D01*
X2247900Y-457200D01*
X2057400Y-457200D01*
D13*
X355600Y-457200D02*
G01*
X673100Y-457200D01*
D14*
X355600Y-457200D02*
G01*
X355600Y-203200D01*
X863600Y-203200D01*
X863600Y-457200D01*
X673100Y-457200D01*
X3149600Y-457200D02*
G01*
X3340100Y-457200D01*
X3340100Y-203200D01*
X2578100Y-203200D01*
X2578100Y-457200D01*
D13*
X2578100Y-457200D02*
G01*
X3149600Y-457200D01*
D12*
X1141122Y-775398D02*
G01*
X1221125Y-775398D01*
X1110137Y-886373D02*
G01*
X1110137Y-806376D01*
X1252103Y-886373D02*
G01*
X1252103Y-806376D01*
X1109555Y-943963D02*
G01*
X1109555Y-1023962D01*
X1140538Y-1054945D02*
G01*
X1220536Y-1054945D01*
X1251516Y-943963D02*
G01*
X1251516Y-1023962D01*
X965898Y-1297277D02*
G01*
X965898Y-1217274D01*
X1076873Y-1328262D02*
G01*
X996876Y-1328262D01*
X1076873Y-1186296D02*
G01*
X996876Y-1186296D01*
X1134463Y-1328844D02*
G01*
X1214462Y-1328844D01*
X1245445Y-1297861D02*
G01*
X1245445Y-1217863D01*
X1134463Y-1186883D02*
G01*
X1214462Y-1186883D01*
X3541699Y-1577200D02*
G01*
X3541699Y-1877199D01*
X3441700Y-1709420D02*
G01*
X3482340Y-1767839D01*
X3482340Y-1767839D02*
G01*
X3401059Y-1767839D01*
X3401059Y-1767839D02*
G01*
X3441700Y-1709420D01*
X3341700Y-1877199D02*
G01*
X3341700Y-1577200D01*
X3492500Y-1686560D02*
G01*
X3390900Y-1686560D01*
X747699Y-1577200D02*
G01*
X747699Y-1877199D01*
X647700Y-1709420D02*
G01*
X688339Y-1767839D01*
X688339Y-1767839D02*
G01*
X607060Y-1767839D01*
X607060Y-1767839D02*
G01*
X647700Y-1709420D01*
X547700Y-1877199D02*
G01*
X547700Y-1577200D01*
X698500Y-1686560D02*
G01*
X596900Y-1686560D01*
X3262299Y-1577200D02*
G01*
X3262299Y-1877199D01*
X3162300Y-1709420D02*
G01*
X3202940Y-1767839D01*
X3202940Y-1767839D02*
G01*
X3121659Y-1767839D01*
X3121659Y-1767839D02*
G01*
X3162300Y-1709420D01*
X3062300Y-1877199D02*
G01*
X3062300Y-1577200D01*
X3213100Y-1686560D02*
G01*
X3111500Y-1686560D01*
X1365399Y-444599D02*
G01*
X1365399Y-530999D01*
X1365399Y-530999D02*
G01*
X1265397Y-530999D01*
X1225400Y-349603D02*
G01*
X1225400Y-412396D01*
X1365399Y-231000D02*
G01*
X1365399Y-317400D01*
X1365399Y-231000D02*
G01*
X1265397Y-231000D01*
D11*
X809619Y-1031509D02*
G01*
X938113Y-1031509D01*
X938113Y-848090D01*
X809619Y-848090D01*
X714380Y-1031509D02*
G01*
X585886Y-1031509D01*
X585886Y-848090D01*
X714380Y-848090D01*
D15*
X1701180Y-2033330D02*
G01*
X2460701Y-2237511D01*
X2664495Y-2998081D01*
X2108819Y-3554669D01*
X1349395Y-3350460D01*
X1145603Y-2589890D01*
X1701180Y-2033330D01*
D14*
X444500Y-4102100D02*
G01*
X254000Y-4102100D01*
X254000Y-4356100D01*
X1016000Y-4356100D01*
X1016000Y-4102100D01*
D13*
X1016000Y-4102100D02*
G01*
X444500Y-4102100D01*
D12*
X1554479Y-800100D02*
G01*
X1554479Y-1282700D01*
X1869439Y-1282700D01*
X1869439Y-800100D01*
X1869439Y-800100D02*
G01*
X1775460Y-800100D01*
X1648460Y-800100D02*
G01*
X1554479Y-800100D01*
G75*
G01*
X1140539Y-1054951D02*
G02*
X1109556Y-1023968I0J30983D01*
G75*
G01*
X1251522Y-1023968D02*
G02*
X1220536Y-1054951I-30983J0D01*
G75*
G01*
X1110137Y-806381D02*
G02*
X1141123Y-775399I30983J0D01*
G75*
G01*
X1221120Y-775399D02*
G02*
X1252103Y-806381I0J-30982D01*
G75*
G01*
X1245451Y-1297861D02*
G02*
X1214468Y-1328844I-30983J0D01*
G75*
G01*
X1214468Y-1186878D02*
G02*
X1245451Y-1217864I0J-30983D01*
G75*
G01*
X996881Y-1328263D02*
G02*
X965899Y-1297277I0J30983D01*
G75*
G01*
X965899Y-1217280D02*
G02*
X996881Y-1186297I30982J0D01*
D16*
G75*
G01*
X2745257Y-2568854D02*
G03*
X2745494Y-2569736I-840126J-225636D01*
D15*
G75*
G01*
X3168528Y-2455438D02*
G03*
X3168645Y-2455880I-1264594J-334555D01*
G75*
G01*
X902546Y-3635939D02*
G03*
X1063518Y-3794681I120464J-38832D01*
G75*
G01*
X675785Y-2347636D02*
G03*
X615737Y-2566335I25392J-124565D01*
G75*
G01*
X2907505Y-1952257D02*
G03*
X2746527Y-1793098I-120749J38860D01*
G75*
G01*
X2542799Y-2623101D02*
G03*
X2542977Y-2623764I-637670J-171378D01*
G75*
G01*
X3134314Y-3240339D02*
G03*
X3194362Y-3021637I-25390J124566D01*
D12*
G75*
G01*
X1775460Y-800100D02*
G02*
X1648460Y-800100I-63500J0D01*
G75*
G01
X1515110Y-777240D02*
G03X1515110Y-777240I-19050J0D01*
M02*
